<?xml version="1.0" encoding="UTF-8"?>
<!DOCTYPE svg PUBLIC "-//W3C//DTD SVG 1.1//EN" "http://www.w3.org/Graphics/SVG/1.1/DTD/svg11.dtd">
<!-- Creator: CorelDRAW X7 -->
<svg xmlns="http://www.w3.org/2000/svg" xml:space="preserve" width="82mm" height="15mm" version="1.1" style="shape-rendering:geometricPrecision; text-rendering:geometricPrecision; image-rendering:optimizeQuality; fill-rule:evenodd; clip-rule:evenodd"
viewBox="0 0 8200 1500"
 xmlns:xlink="http://www.w3.org/1999/xlink">
 <defs>
  <style type="text/css">
   <![CDATA[
    .fil0 {fill:#E31E24;fill-rule:nonzero}
   ]]>
  </style>
 </defs>
 <g id="Layer_x0020_1">
  <metadata id="CorelCorpID_0Corel-Layer"/>
  <path class="fil0" d="M6679 1403c-233,-41 -426,-196 -514,-413 -45,-112 -60,-303 -33,-418 39,-164 142,-313 277,-400 119,-77 214,-99 464,-107l224 -7 0 471 -86 -35c-56,-23 -122,-38 -189,-41 -97,-6 -108,-3 -169,36 -87,56 -127,133 -127,246 -1,73 5,93 41,145 56,80 132,122 220,122 92,0 106,-12 101,-77l-4 -54 -107 0 -107 1 0 -153 0 -152 289 4 290 4 0 280c0,171 6,299 15,325 20,56 2,79 -110,138 -135,72 -339,109 -475,85z"/>
  <path class="fil0" d="M335 1351c6,-13 14,-225 16,-471l4 -448 -125 5 -125 5 4 -186 3 -187 321 -4 321 -3 0 1313 -215 0c-201,0 -215,-1 -204,-24z"/>
  <path class="fil0" d="M837 719l0 -657 565 0 0 382 -76 -6 -76 -6 0 142 235 0 0 -512 413 0 0 1313 -440 0 13 -35c8,-20 14,-128 14,-242l0 -206 -236 0 4 217c2,120 10,229 16,242 11,23 -4,24 -210,24l-222 0 0 -656z"/>
  <path class="fil0" d="M1955 1353c29,-35 36,-1152 8,-1234l-20 -57 797 0 0 383 -73 -19c-41,-11 -120,-17 -183,-15l-110 4 -4 81 -4 81 118 -6 118 -6 0 323 -61 -13c-34,-7 -85,-11 -114,-9l-53 5 -4 74 -4 74 156 -7c85,-4 170,-11 187,-17l31 -10 0 390 -402 0c-372,0 -400,-1 -383,-22z"/>
  <path class="fil0" d="M3521 1330c-191,-457 -519,-1199 -544,-1229l-33 -39 463 0c255,0 463,5 463,10 0,6 -27,82 -60,170l-60 159 -105 4c-58,2 -106,6 -106,9 0,13 130,361 138,371 5,6 70,-154 145,-356l135 -367 1072 0 0 202c0,187 -2,201 -24,191 -14,-6 -97,-14 -187,-17l-162 -5 0 144 118 -6 117 -6 0 323 -61 -13c-34,-7 -85,-11 -114,-9l-53 5 -4 79 -4 80 123 0c74,0 147,-8 182,-21 32,-11 61,-21 64,-21 2,0 5,87 5,194l0 193 -402 0c-329,0 -399,-3 -386,-18 16,-20 29,-977 13,-977 -5,0 -104,224 -220,498l-211 497 -283 0 -19 -45z"/>
  <path class="fil0" d="M5556 408c13,1 32,8 59,20 83,34 99,124 35,188 -27,27 -54,40 -82,40l-43 0 0 -124c0,-95 1,-126 31,-124zm-474 -346l11 31c15,41 15,1227 0,1258 -11,23 4,24 224,24 230,0 237,-1 223,-27 -8,-14 -15,-102 -15,-194 0,-167 1,-168 31,-159 58,18 134,76 171,132 42,63 58,173 34,219l-16 29 236 0c137,0 232,-5 227,-12 -4,-7 -19,-81 -33,-164 -31,-184 -87,-301 -176,-369l-59 -45 34 -46c112,-153 94,-408 -38,-541 -108,-108 -231,-136 -601,-136l-253 0z"/>
  <path class="fil0" d="M7313 1351c15,-31 16,-1216 1,-1258l-12 -31 398 3 397 4 4 191 4 191 -32 -10c-76,-24 -135,-33 -234,-33l-107 0 0 169 117 -6 117 -6 0 165c0,151 -2,164 -24,155 -13,-5 -65,-13 -116,-17l-91 -8 -5 73c-4,51 0,75 13,80 23,9 290,-6 330,-18l31 -10 0 390 -401 0c-378,0 -401,-1 -390,-24z"/>
 </g>
</svg>
