<?xml version="1.0" encoding="UTF-8"?>
<!DOCTYPE svg PUBLIC "-//W3C//DTD SVG 1.1//EN" "http://www.w3.org/Graphics/SVG/1.1/DTD/svg11.dtd">
<!-- Creator: CorelDRAW X7 -->
<svg xmlns="http://www.w3.org/2000/svg" xml:space="preserve" width="296mm" height="100mm" version="1.1" style="shape-rendering:geometricPrecision; text-rendering:geometricPrecision; image-rendering:optimizeQuality; fill-rule:evenodd; clip-rule:evenodd"
viewBox="0 0 29600 10000"
 xmlns:xlink="http://www.w3.org/1999/xlink">
 <defs>
  <style type="text/css">
   <![CDATA[
    .fil1 {fill:#FEFEFE}
    .fil2 {fill:#FEFEFE;fill-rule:nonzero}
    .fil0 {fill:#FEFEFE;fill-opacity:0.501961}
    .fil3 {fill:#FEFEFE;fill-rule:nonzero;fill-opacity:0.650980}
   ]]>
  </style>
 </defs>
 <g id="Layer_x0020_1">
  <metadata id="CorelCorpID_0Corel-Layer"/>
  <g id="_835216192">
   <g>
    <polygon class="fil0" points="5629,7475 5629,9950 4313,9190 2996,9950 2996,7475 4313,8235 "/>
    <polygon class="fil1" points="4313,50 26,2525 26,7475 1016,6903 1016,3097 4313,1193 7610,3097 7610,6903 8600,7475 8600,2525 "/>
    <path class="fil0" d="M26 7475l1980 1143 0 -1143 -990 -572 -990 572zm6593 1143l1981 -1143 -990 -572 -991 572 0 1143z"/>
    <path class="fil1" d="M4313 2336l-2307 1332 0 2664 2307 1332 2306 -1332 0 -2664 -2306 -1332zm0 1144l-1317 760 0 1520 1317 760 1316 -760 0 -1520 -1316 -760z"/>
    <path class="fil0" d="M4313 3480l-1317 760 0 1520 1317 760 1316 -760 0 -1520 -1316 -760zm0 1143l-327 188 0 378 327 188 326 -188 0 -378 -326 -188z"/>
   </g>
   <path class="fil2" d="M12174 5307l-326 0 0 -245 -8 0c-137,193 -333,289 -586,289 -214,0 -380,-47 -500,-141 -129,-101 -194,-251 -194,-449 0,-215 102,-378 305,-488 162,-90 354,-135 576,-135 156,0 279,3 369,8 0,-169 -34,-292 -101,-370 -73,-83 -196,-123 -366,-123 -213,0 -396,64 -549,192l-18 -296c199,-119 406,-178 623,-178 266,0 460,65 583,197 118,127 178,322 178,585l0 782c0,175 4,298 14,372zm-364 -735l0 -166c-24,0 -61,-2 -110,-4 -50,-3 -87,-4 -111,-4 -438,0 -658,121 -658,364 0,93 39,169 117,228 68,53 147,79 237,79 166,0 297,-47 391,-142 90,-90 134,-208 134,-355z"/>
   <path id="1" class="fil2" d="M14445 4326c0,287 -63,522 -191,707 -147,212 -353,318 -620,318 -295,0 -506,-101 -631,-303l-8 0 0 1038 -349 0 0 -2671 334 0 0 267 8 0c136,-207 350,-311 643,-311 260,0 465,96 613,288 135,175 201,397 201,667zm-371 28c0,-193 -39,-353 -117,-480 -92,-148 -226,-221 -401,-221 -178,0 -319,74 -421,222 -94,133 -140,296 -140,490 0,181 44,338 132,471 103,156 245,233 426,233 170,0 304,-82 402,-246 80,-136 119,-293 119,-469z"/>
   <path id="2" class="fil2" d="M16608 4326c0,287 -64,522 -192,707 -146,212 -353,318 -619,318 -296,0 -506,-101 -632,-303l-7 0 0 1038 -349 0 0 -2671 334 0 0 267 7 0c136,-207 351,-311 643,-311 261,0 466,96 614,288 134,175 201,397 201,667zm-371 28c0,-193 -39,-353 -117,-480 -93,-148 -226,-221 -401,-221 -179,0 -319,74 -422,222 -93,133 -139,296 -139,490 0,181 44,338 132,471 103,156 244,233 425,233 171,0 304,-82 403,-246 79,-136 119,-293 119,-469z"/>
   <path id="3" class="fil2" d="M17992 4761c0,191 -68,339 -203,446 -123,96 -275,144 -459,144 -216,0 -389,-35 -518,-105l18 -311c138,90 283,134 435,134 95,0 174,-19 238,-59 78,-47 118,-118 118,-213 0,-91 -71,-176 -212,-253 -132,-71 -264,-143 -396,-214 -142,-101 -212,-227 -212,-378 0,-188 64,-335 192,-438 120,-96 278,-143 475,-143 123,0 268,24 435,74l-29 303c-38,-22 -99,-45 -183,-66 -80,-20 -141,-29 -185,-29 -95,0 -173,18 -233,56 -67,41 -101,99 -101,174 0,102 71,191 213,264 132,68 264,136 395,203 141,101 212,239 212,411z"/>
   <path id="4" class="fil2" d="M19907 4439l-1350 0c0,182 63,334 188,455 120,117 264,175 434,175 105,0 220,-22 346,-68 108,-39 187,-79 237,-121l0 349c-227,82 -426,122 -597,122 -326,0 -572,-94 -740,-282 -159,-176 -239,-424 -239,-743 0,-281 82,-510 245,-688 162,-178 377,-267 643,-267 555,0 833,356 833,1068zm-371 -260c0,-150 -41,-274 -123,-372 -87,-103 -203,-154 -347,-154 -157,0 -282,56 -373,170 -75,95 -121,213 -136,356l979 0z"/>
   <path id="5" class="fil2" d="M22983 5307l-348 0 0 -1129c0,-350 -113,-525 -338,-525 -167,0 -294,72 -383,217 -76,127 -114,288 -114,484l0 953 -349 0 0 -1129c0,-350 -112,-525 -337,-525 -166,0 -293,72 -382,217 -77,127 -115,288 -115,484l0 953 -349 0 0 -1892 327 0 0 274 7 0c130,-212 331,-318 601,-318 263,0 443,122 538,367 59,-123 151,-218 277,-286 102,-54 205,-81 308,-81 438,0 657,241 657,722l0 1214z"/>
   <path id="6" class="fil2" d="M25266 4326c0,287 -64,522 -192,707 -146,212 -353,318 -619,318 -295,0 -511,-103 -647,-311l-7 0 0 267 -334 0 0 -2782 349 0 0 1149 7 0c125,-202 335,-303 628,-303 261,0 466,96 614,288 134,175 201,397 201,667zm-371 28c0,-193 -39,-353 -118,-480 -92,-148 -225,-221 -400,-221 -179,0 -319,74 -422,222 -93,133 -139,296 -139,490 0,181 43,338 132,471 102,156 244,233 425,233 171,0 304,-82 403,-246 79,-136 119,-293 119,-469z"/>
   <polygon id="7" class="fil2" points="26023,5307 25674,5307 25674,2525 26023,2525 "/>
   <path id="8" class="fil2" d="M28152 4439l-1350 0c0,182 63,334 188,455 120,117 264,175 434,175 105,0 220,-22 346,-68 107,-39 187,-79 237,-121l0 349c-227,82 -426,122 -597,122 -326,0 -572,-94 -741,-282 -158,-176 -238,-424 -238,-743 0,-281 81,-510 245,-688 162,-178 377,-267 643,-267 555,0 833,356 833,1068zm-371 -260c0,-150 -41,-274 -123,-372 -87,-103 -203,-154 -347,-154 -157,0 -282,56 -373,170 -75,95 -121,213 -136,356l979 0z"/>
   <path id="9" class="fil2" d="M29574 3708c-54,-22 -119,-33 -194,-33 -156,0 -281,69 -374,208 -94,139 -141,327 -141,563l0 861 -348 0 0 -1892 326 0 0 292 8 0c47,-99 115,-180 207,-242 91,-63 186,-94 286,-94 67,0 143,8 230,25l0 312z"/>
   <path class="fil3" d="M20698 6888l-210 -599 -4 0 -210 599 424 0zm-936 562l565 -1453 330 0 570 1453 -323 0 -125 -333 -589 0 -127 333 -301 0zm2383 -1061l-26 220c-57,-26 -120,-39 -189,-39 -86,0 -154,31 -206,93 -51,62 -77,144 -77,246 0,104 24,187 72,249 51,67 123,101 217,101 67,0 138,-17 215,-51l12 231c-77,24 -169,36 -278,36 -171,0 -304,-53 -397,-161 -88,-101 -132,-235 -132,-405 0,-161 44,-293 133,-394 94,-108 223,-162 385,-162 101,0 192,12 271,36zm294 285l-8 -239c117,-55 241,-82 372,-82 164,0 281,36 354,107 72,71 108,186 108,344l0 138c0,72 2,162 4,268 2,75 6,155 13,240l-246 0c-3,-14 -7,-67 -13,-161l-4 0c-31,58 -78,104 -142,138 -60,32 -123,48 -189,48 -101,0 -187,-28 -258,-83 -77,-60 -116,-139 -116,-236 0,-144 61,-246 183,-306 85,-41 205,-62 360,-62l154 0c0,-84 -19,-144 -59,-180 -37,-34 -98,-51 -182,-51 -118,0 -229,39 -331,117zm141 466c0,87 59,131 177,131 111,0 188,-52 229,-155 17,-42 25,-96 25,-161l-121 0c-206,0 -310,61 -310,185zm1218 -229c0,90 16,166 49,229 42,79 104,119 186,119 84,0 148,-39 192,-117 35,-64 53,-141 53,-231 0,-87 -19,-163 -57,-228 -46,-76 -110,-113 -192,-113 -82,0 -143,38 -184,117 -31,61 -47,135 -47,224zm491 539l0 -121 -4 0c-78,97 -188,146 -329,146 -154,0 -270,-58 -348,-173 -68,-99 -102,-229 -102,-391 0,-163 34,-292 102,-390 78,-112 193,-168 348,-168 131,0 238,50 319,150l6 0 0 -614 278 0 0 1561 -270 0zm790 -641l474 0c-10,-168 -85,-252 -226,-252 -151,0 -234,84 -248,252zm662 353l0 228c-103,57 -226,85 -368,85 -178,0 -316,-49 -414,-146 -98,-98 -147,-235 -147,-410 0,-164 42,-297 124,-399 90,-111 214,-167 373,-167 187,0 322,61 405,183 70,104 106,259 106,464l-741 0c6,85 37,151 92,199 55,48 126,72 214,72 108,0 227,-36 356,-109zm328 288l0 -1072 260 0 0 151 4 0c78,-117 184,-176 319,-176 154,0 259,63 316,189 30,-62 78,-109 142,-143 59,-31 124,-46 193,-46 226,0 340,140 340,420l0 677 -279 0 0 -639c0,-73 -7,-126 -21,-158 -23,-56 -70,-83 -140,-83 -138,0 -208,120 -208,359l0 521 -279 0 0 -639c0,-73 -7,-126 -20,-158 -23,-56 -70,-83 -140,-83 -139,0 -208,120 -208,359l0 521 -279 0zm2077 -1072l258 782 4 0 258 -782 283 0 -401 1064c-64,168 -113,277 -148,324 -70,97 -169,146 -297,146 -65,0 -132,-10 -199,-29l19 -207c36,13 83,20 144,20 55,0 99,-18 132,-53 32,-34 49,-81 49,-139l-410 -1126 308 0z"/>
  </g>
 </g>
</svg>
