<?xml version="1.0" encoding="UTF-8"?>
<!DOCTYPE svg PUBLIC "-//W3C//DTD SVG 1.1//EN" "http://www.w3.org/Graphics/SVG/1.1/DTD/svg11.dtd">
<!-- Creator: CorelDRAW X7 -->
<svg xmlns="http://www.w3.org/2000/svg" xml:space="preserve" width="96mm" height="30mm" version="1.1" style="shape-rendering:geometricPrecision; text-rendering:geometricPrecision; image-rendering:optimizeQuality; fill-rule:evenodd; clip-rule:evenodd"
viewBox="0 0 9600 3000"
 xmlns:xlink="http://www.w3.org/1999/xlink">
 <defs>
  <style type="text/css">
   <![CDATA[
    .fil1 {fill:#FEFEFE}
    .fil0 {fill:#FEFEFE;fill-rule:nonzero}
   ]]>
  </style>
 </defs>
 <g id="Layer_x0020_1">
  <metadata id="CorelCorpID_0Corel-Layer"/>
  <g id="_898534192">
   <polygon class="fil0" points="1609,1549 1609,1329 1807,1329 1807,468 1609,468 1609,248 2345,248 2345,468 2146,468 2146,1329 2345,1329 2345,1549 "/>
   <path class="fil0" d="M5945 351l13 0c15,0 25,0 30,-1 5,-1 9,-3 13,-7 3,-3 5,-8 5,-14 0,-5 -2,-9 -6,-13 -3,-4 -8,-6 -13,-6 -6,-1 -15,-1 -29,-1l-13 0 0 42zm104 88l-39 0 -13 -25c-8,-16 -16,-26 -22,-31 -6,-5 -14,-7 -24,-7l-6 0 0 63 -32 0 0 -155 56 0c19,0 32,1 40,2 8,2 15,7 21,14 6,8 9,17 9,28 0,11 -3,21 -11,29 -7,8 -18,13 -31,14 7,3 12,6 16,10 3,4 9,13 18,27l18 31zm45 -78c0,-32 -12,-60 -35,-83 -23,-23 -50,-35 -83,-35 -32,0 -60,12 -83,35 -23,23 -34,51 -34,83 0,32 11,60 34,83 23,23 51,35 83,35 33,0 60,-12 83,-35 23,-23 35,-50 35,-83zm29 0c0,40 -14,75 -43,104 -29,28 -63,43 -104,43 -40,0 -75,-15 -103,-43 -29,-29 -43,-63 -43,-104 0,-40 14,-75 43,-104 28,-28 63,-42 103,-42 41,0 75,14 104,43 29,28 43,63 43,103z"/>
   <polygon class="fil0" points="2526,1549 2526,1328 2695,1328 2695,468 2526,468 2526,248 3179,248 3464,1010 3750,248 4417,248 4417,468 4248,468 4248,1328 4417,1328 4417,1549 3762,1549 3762,1328 3919,1328 3919,468 3888,468 3485,1549 3345,1549 2937,468 2906,468 2906,1328 3076,1328 3076,1549 "/>
   <path class="fil0" d="M1073 268l215 0 0 448 -215 0c-61,-161 -167,-241 -317,-241 -124,0 -218,42 -282,127 -63,85 -95,186 -95,304 0,124 33,224 101,301 67,76 153,115 257,115 85,0 160,-29 224,-87 64,-58 107,-138 130,-241l250 119c-95,295 -304,443 -628,443 -228,0 -401,-62 -517,-185 -116,-123 -174,-279 -174,-467 0,-134 30,-252 90,-353 61,-100 142,-176 244,-227 102,-51 214,-76 336,-76 151,0 278,39 381,118l0 -98z"/>
   <path class="fil0" d="M5348 922l-108 -390 -117 390 225 0zm587 413l0 220 -639 0 0 -220 167 0 -62 -223 -336 0 -69 223 173 0 0 220 -575 0 0 -220 161 0 253 -858 -173 0 0 -220 847 0 0 220 -175 0 273 858 155 0z"/>
   <path class="fil0" d="M313 2019c-32,59 -87,86 -128,86 -59,0 -88,-50 -69,-115 19,-66 75,-114 134,-114 42,0 73,24 79,61l38 0 28 -95 -38 0 -8 27c-20,-21 -52,-32 -89,-32 -90,0 -167,61 -194,154 -27,91 16,154 104,154 73,0 139,-40 176,-105l-33 -21z"/>
   <polygon id="1" class="fil0" points="447,2103 408,2103 397,2140 645,2140 672,2048 635,2048 619,2103 492,2103 520,2005 631,2005 642,1968 531,1968 557,1879 684,1879 669,1931 706,1931 732,1842 484,1842 474,1879 512,1879 "/>
   <path id="2" class="fil0" d="M765 2103l-41 0 -11 37 124 0 11 -37 -39 0 30 -103 43 0 27 140 65 0 10 -37 -36 0 -21 -109c43,-10 72,-36 83,-75 14,-45 -5,-77 -72,-77l-138 0 -11 37 41 0 -65 224zm85 -140l25 -84 54 0c29,0 43,14 36,40 -6,20 -22,44 -64,44l-51 0z"/>
   <polygon id="3" class="fil0" points="1354,1842 1112,1842 1079,1955 1116,1955 1138,1879 1200,1879 1134,2103 1095,2103 1084,2140 1207,2140 1218,2103 1179,2103 1244,1879 1306,1879 1284,1955 1321,1955 "/>
   <polygon id="4" class="fil0" points="1376,2103 1344,2103 1333,2140 1443,2140 1454,2103 1421,2103 1486,1879 1519,1879 1530,1842 1420,1842 1409,1879 1442,1879 "/>
   <polygon id="5" class="fil0" points="1561,2103 1523,2103 1512,2140 1633,2140 1644,2103 1606,2103 1634,2005 1731,2005 1742,1967 1645,1967 1671,1879 1783,1879 1768,1931 1805,1931 1831,1842 1599,1842 1588,1879 1626,1879 "/>
   <polygon id="6" class="fil0" points="1851,2103 1819,2103 1808,2140 1918,2140 1929,2103 1896,2103 1961,1879 1994,1879 2005,1842 1895,1842 1884,1879 1917,1879 "/>
   <polygon id="7" class="fil0" points="2041,2103 2002,2103 1991,2140 2239,2140 2266,2048 2229,2048 2213,2103 2086,2103 2114,2005 2225,2005 2236,1968 2125,1968 2151,1879 2278,1879 2263,1931 2300,1931 2326,1842 2078,1842 2068,1879 2106,1879 "/>
   <path id="8" class="fil0" d="M2424 1879l-66 224 -40 0 -11 37 136 0c107,0 173,-56 201,-152 21,-72 6,-146 -110,-146l-140 0 -11 37 41 0zm44 0l54 0c76,0 94,47 76,110 -19,63 -60,114 -142,114l-53 0 65 -224z"/>
   <polygon class="fil0" points="2903,2103 2871,2103 2860,2140 2970,2140 2981,2103 2948,2103 3014,1879 3046,1879 3057,1842 2947,1842 2936,1879 2969,1879 "/>
   <polygon id="1" class="fil0" points="3086,2103 3044,2103 3033,2140 3156,2140 3166,2103 3123,2103 3186,1888 3187,1888 3254,2143 3301,2143 3378,1879 3422,1879 3433,1842 3310,1842 3300,1879 3341,1879 3284,2074 3284,2074 3222,1842 3120,1842 3109,1879 3152,1879 "/>
   <polygon id="2" class="fil0" points="3530,2143 3571,2143 3747,1879 3783,1879 3794,1842 3680,1842 3669,1879 3703,1879 3571,2079 3553,1879 3588,1879 3599,1842 3481,1842 3470,1879 3507,1879 "/>
   <polygon id="3" class="fil0" points="3815,2103 3776,2103 3765,2140 4013,2140 4040,2048 4003,2048 3987,2103 3860,2103 3888,2005 3999,2005 4010,1968 3899,1968 3925,1879 4052,1879 4037,1931 4074,1931 4100,1842 3853,1842 3842,1879 3880,1879 "/>
   <path id="4" class="fil0" d="M4090 2140l37 0 7 -24c16,19 38,29 65,29 54,0 106,-37 120,-88 7,-24 5,-48 -6,-64 -25,-35 -98,-31 -114,-54 -5,-6 -6,-16 -3,-26 7,-23 31,-38 61,-38 28,0 44,11 54,35l-6 20 36 0 27 -90 -37 0 -6 20c-16,-15 -36,-23 -60,-23 -45,0 -95,26 -111,82 -7,25 -4,42 4,54 33,46 133,26 116,85 -9,28 -38,50 -68,50 -28,0 -45,-18 -55,-50l8 -26 -37 0 -32 108z"/>
   <polygon id="5" class="fil0" points="4690,1842 4448,1842 4415,1955 4452,1955 4474,1879 4536,1879 4470,2103 4431,2103 4420,2140 4543,2140 4554,2103 4515,2103 4581,1879 4642,1879 4620,1955 4657,1955 "/>
   <polygon id="6" class="fil0" points="4713,2103 4677,2103 4666,2140 4771,2140 4782,2103 4750,2103 4816,1879 4816,1879 4840,2143 4849,2143 5028,1879 5029,1879 4963,2103 4931,2103 4920,2140 5030,2140 5040,2103 5004,2103 5070,1879 5106,1879 5117,1842 5013,1842 4874,2046 4856,1842 4753,1842 4742,1879 4779,1879 "/>
   <polygon id="7" class="fil0" points="5149,2103 5111,2103 5100,2140 5347,2140 5374,2048 5337,2048 5321,2103 5194,2103 5223,2005 5333,2005 5344,1968 5234,1968 5260,1879 5387,1879 5371,1931 5408,1931 5434,1842 5187,1842 5176,1879 5215,1879 "/>
   <polygon id="8" class="fil0" points="5465,2103 5422,2103 5411,2140 5534,2140 5545,2103 5502,2103 5564,1888 5565,1888 5632,2143 5679,2143 5757,1879 5801,1879 5812,1842 5689,1842 5678,1879 5720,1879 5663,2074 5662,2074 5600,1842 5498,1842 5488,1879 5530,1879 "/>
   <polygon id="9" class="fil0" points="6107,1842 5865,1842 5832,1955 5869,1955 5891,1879 5953,1879 5887,2103 5848,2103 5837,2140 5960,2140 5971,2103 5932,2103 5997,1879 6059,1879 6037,1955 6074,1955 "/>
   <polygon class="fil0" points="69,2617 32,2617 21,2655 127,2655 138,2617 106,2617 171,2394 172,2394 196,2658 204,2658 383,2393 384,2393 319,2617 286,2617 276,2655 385,2655 396,2617 360,2617 425,2394 461,2394 472,2356 368,2356 230,2561 211,2356 109,2356 98,2394 134,2394 "/>
   <path id="1" class="fil0" d="M672 2550l2 67 -37 0 -11 38 117 0 11 -38 -33 0 -14 -227 35 0 10 -34 -153 0 -9 34 35 0 -149 227 -36 0 -11 38 118 0 11 -38 -36 0 43 -67 107 0zm-1 -35l-85 0 78 -125 4 0 3 125z"/>
   <polygon id="2" class="fil0" points="833,2617 790,2617 779,2655 902,2655 913,2617 870,2617 932,2403 933,2403 1000,2658 1047,2658 1124,2394 1168,2394 1179,2356 1057,2356 1046,2394 1088,2394 1031,2588 1030,2588 968,2356 866,2356 855,2394 898,2394 "/>
   <path id="3" class="fil0" d="M1363 2550l3 67 -37 0 -11 38 117 0 11 -38 -34 0 -14 -227 35 0 10 -34 -152 0 -10 34 35 0 -148 227 -36 0 -11 38 118 0 11 -38 -37 0 43 -67 107 0zm-1 -35l-85 0 78 -125 4 0 3 125z"/>
   <path id="4" class="fil0" d="M1720 2511l-11 37 54 0c-20,42 -68,72 -118,72 -63,0 -95,-48 -76,-115 20,-67 76,-114 139,-114 43,0 76,25 82,63l38 0 29 -98 -38 0 -10 33c-23,-26 -51,-38 -93,-38 -110,0 -176,84 -196,153 -17,59 -14,156 113,156 78,0 166,-40 196,-149l-109 0z"/>
   <polygon id="5" class="fil0" points="1907,2617 1869,2617 1858,2655 2105,2655 2132,2563 2095,2563 2079,2617 1952,2617 1981,2520 2092,2520 2103,2482 1992,2482 2018,2394 2145,2394 2129,2446 2166,2446 2193,2356 1945,2356 1934,2394 1973,2394 "/>
   <polygon id="6" class="fil0" points="2216,2617 2179,2617 2168,2655 2274,2655 2285,2617 2253,2617 2318,2394 2319,2394 2342,2658 2351,2658 2530,2393 2531,2393 2465,2617 2433,2617 2422,2655 2532,2655 2543,2617 2507,2617 2572,2394 2608,2394 2619,2356 2515,2356 2376,2561 2358,2356 2255,2356 2245,2394 2281,2394 "/>
   <polygon id="7" class="fil0" points="2642,2617 2603,2617 2592,2655 2840,2655 2867,2563 2830,2563 2814,2617 2687,2617 2715,2520 2826,2520 2837,2482 2726,2482 2752,2394 2879,2394 2864,2446 2901,2446 2927,2356 2679,2356 2668,2394 2707,2394 "/>
   <polygon id="8" class="fil0" points="2947,2617 2905,2617 2894,2655 3017,2655 3027,2617 2984,2617 3047,2403 3048,2403 3115,2658 3162,2658 3239,2394 3283,2394 3294,2356 3171,2356 3161,2394 3202,2394 3145,2588 3145,2588 3083,2356 2981,2356 2970,2394 3013,2394 "/>
   <polygon id="9" class="fil0" points="3580,2356 3338,2356 3305,2470 3341,2470 3364,2394 3425,2394 3360,2617 3321,2617 3310,2655 3433,2655 3444,2617 3405,2617 3470,2394 3532,2394 3509,2470 3546,2470 "/>
   <path class="fil0" d="M3976 2550l2 67 -37 0 -11 38 117 0 11 -38 -33 0 -14 -227 35 0 10 -34 -153 0 -10 34 35 0 -148 227 -36 0 -11 38 118 0 11 -38 -37 0 44 -67 107 0zm-1 -35l-85 0 78 -125 4 0 3 125z"/>
   <polygon id="1" class="fil0" points="4143,2617 4100,2617 4089,2655 4212,2655 4223,2617 4180,2617 4243,2403 4243,2403 4311,2658 4358,2658 4435,2394 4479,2394 4490,2356 4367,2356 4356,2394 4398,2394 4341,2588 4340,2588 4279,2356 4177,2356 4166,2394 4208,2394 "/>
   <path id="2" class="fil0" d="M4680 2550l3 67 -37 0 -11 38 117 0 11 -38 -34 0 -14 -227 35 0 10 -34 -152 0 -10 34 35 0 -148 227 -36 0 -11 38 118 0 10 -38 -36 0 43 -67 107 0zm-1 -35l-85 0 78 -125 4 0 3 125z"/>
   <polygon id="3" class="fil0" points="4849,2617 4809,2617 4798,2655 5017,2655 5058,2516 5017,2516 4987,2617 4894,2617 4959,2394 4997,2394 5008,2356 4885,2356 4875,2394 4914,2394 "/>
   <polygon id="4" class="fil0" points="5164,2617 5124,2617 5113,2655 5239,2655 5250,2617 5209,2617 5238,2519 5357,2394 5397,2394 5408,2356 5289,2356 5278,2394 5315,2394 5228,2485 5189,2394 5227,2394 5238,2356 5115,2356 5104,2394 5141,2394 5193,2519 "/>
   <path id="5" class="fil0" d="M5375 2655l37 0 7 -25c16,20 38,30 65,30 54,0 106,-38 120,-88 8,-25 5,-49 -6,-65 -25,-34 -98,-30 -114,-54 -5,-6 -6,-15 -3,-25 7,-23 31,-38 61,-38 28,0 44,11 54,34l-6 21 36 0 27 -90 -37 0 -6 20c-16,-16 -36,-24 -60,-24 -45,0 -95,27 -111,82 -7,25 -4,43 4,54 33,47 133,27 116,85 -9,29 -37,50 -68,50 -28,0 -45,-17 -55,-49l8 -26 -37 0 -32 108z"/>
   <polygon id="6" class="fil0" points="5972,2356 5730,2356 5697,2470 5734,2470 5756,2394 5817,2394 5752,2617 5713,2617 5702,2655 5825,2655 5836,2617 5797,2617 5862,2394 5924,2394 5902,2470 5939,2470 "/>
   <path class="fil0" d="M6058 2422l7 0c8,0 13,0 16,0 3,0 5,-2 7,-4 2,-2 3,-4 3,-7 0,-3 -1,-5 -3,-7 -2,-2 -5,-4 -8,-4 -2,0 -8,0 -15,0l-7 0 0 22zm56 48l-21 0 -7 -13c-5,-9 -8,-15 -12,-17 -3,-3 -7,-4 -13,-4l-3 0 0 34 -17 0 0 -84 30 0c10,0 17,1 21,2 5,1 9,3 12,7 3,4 5,9 5,15 0,6 -2,11 -6,16 -4,4 -10,7 -17,8 4,1 7,3 8,5 2,2 6,7 10,14l10 17zm24 -42c0,-18 -6,-32 -18,-45 -13,-12 -28,-18 -45,-18 -18,0 -33,6 -45,18 -12,13 -19,28 -19,45 0,17 7,32 19,45 13,12 27,18 45,18 17,0 32,-6 45,-18 12,-13 18,-28 18,-45zm16 0c0,22 -8,40 -23,56 -16,15 -35,23 -56,23 -22,0 -41,-8 -56,-23 -15,-16 -23,-34 -23,-56 0,-22 8,-40 23,-56 15,-15 34,-23 56,-23 21,0 40,8 56,23 15,16 23,34 23,56z"/>
   <path class="fil1" d="M7226 976c0,-419 556,-760 1241,-760 368,0 697,97 923,251 -226,-202 -605,-334 -1032,-334 -695,0 -1255,343 -1255,769 0,235 175,448 450,589 -204,-137 -327,-316 -327,-515z"/>
   <path class="fil1" d="M9579 978c0,376 -502,681 -1123,681 -620,0 -1122,-305 -1122,-681 0,-379 502,-683 1122,-683 621,0 1123,304 1123,683zm-1743 -240l2 0 -27 280 -72 0 97 -280zm-361 491l190 0 34 -94 101 0 -7 94 188 0 5 -601 -254 0 -257 601zm656 -601l240 0 25 363 2 0 78 -363 157 0 -130 601 -237 0 -29 -354 0 0 -77 354 -156 0 127 -601zm773 166c5,-20 7,-36 5,-47 -5,-11 -14,-16 -34,-16 -18,0 -36,23 -42,45 -23,112 248,45 201,262 -33,159 -141,211 -257,211 -119,0 -236,-20 -191,-193l182 0c-5,23 -7,43 -5,59 2,13 9,20 25,20 24,0 47,-23 53,-52 30,-132 -246,-47 -199,-266 31,-146 119,-207 258,-207 174,0 197,86 174,184l-170 0zm271 -166l184 0 -128 601 -186 0 130 -601z"/>
   <path class="fil0" d="M7471 1973l-26 0 -10 -33 -47 0 -10 33 -25 0 46 -143 25 0 47 143zm-44 -57l-16 -53 -16 53 32 0z"/>
   <polygon id="1" class="fil0" points="7483,1973 7483,1830 7506,1830 7554,1925 7554,1830 7576,1830 7576,1973 7553,1973 7505,1880 7505,1973 "/>
   <path id="2" class="fil0" d="M7595 1926l23 -2c3,18 11,27 26,27 7,0 12,-2 17,-6 4,-3 6,-8 6,-14 0,-3 -1,-6 -2,-8 -2,-2 -4,-4 -7,-5 -3,-2 -10,-4 -21,-8 -10,-3 -18,-6 -22,-10 -5,-3 -9,-8 -12,-14 -2,-6 -4,-12 -4,-19 0,-7 2,-14 6,-21 3,-6 8,-11 14,-14 7,-3 14,-4 23,-4 14,0 25,3 33,11 8,7 12,18 12,32l-24 1c-1,-8 -3,-13 -6,-16 -4,-3 -9,-5 -15,-5 -7,0 -12,2 -15,4 -3,3 -5,6 -5,10 0,4 1,7 5,10 3,3 10,6 21,9 12,3 21,7 26,11 5,4 9,8 12,14 3,6 4,14 4,22 0,13 -4,23 -11,32 -8,8 -20,12 -36,12 -29,0 -45,-16 -48,-49z"/>
   <polygon id="3" class="fil0" points="7709,1973 7709,1830 7733,1830 7733,1973 "/>
   <path id="4" class="fil0" d="M7901 1973l-26 0 -10 -33 -47 0 -10 33 -25 0 46 -143 25 0 47 143zm-44 -57l-16 -53 -16 53 32 0z"/>
   <path id="5" class="fil0" d="M7987 1900l-22 5c-2,-11 -7,-17 -15,-17 -6,0 -11,3 -14,7 -3,5 -5,13 -5,24 0,12 2,21 5,26 3,5 8,8 14,8 4,0 7,-2 10,-5 3,-2 5,-8 6,-15l22 5c-4,25 -18,37 -39,37 -14,0 -24,-5 -31,-16 -7,-10 -10,-23 -10,-38 0,-17 4,-31 11,-40 8,-10 18,-14 30,-14 10,0 18,3 25,8 6,5 10,13 13,25z"/>
   <path id="6" class="fil0" d="M8078 1900l-22 5c-2,-11 -7,-17 -16,-17 -5,0 -10,3 -13,7 -3,5 -5,13 -5,24 0,12 2,21 5,26 3,5 8,8 14,8 4,0 7,-2 10,-5 3,-2 5,-8 6,-15l22 5c-5,25 -18,37 -39,37 -14,0 -24,-5 -31,-16 -7,-10 -10,-23 -10,-38 0,-17 4,-31 11,-40 8,-10 18,-14 30,-14 10,0 18,3 25,8 6,5 10,13 13,25z"/>
   <path id="7" class="fil0" d="M8117 1973l-23 0 0 -104 21 0 0 15c4,-7 7,-12 10,-14 2,-2 6,-3 9,-3 5,0 10,2 15,5l-7 24c-4,-3 -7,-5 -10,-5 -4,0 -6,2 -9,4 -2,2 -4,6 -5,12 -1,6 -1,18 -1,34l0 32z"/>
   <path id="8" class="fil0" d="M8208 1940l22 4c-3,11 -7,19 -14,24 -6,5 -14,7 -23,7 -12,0 -22,-4 -29,-12 -8,-10 -12,-24 -12,-41 0,-18 4,-32 12,-42 7,-9 16,-13 27,-13 12,0 22,4 28,13 8,11 12,26 12,46l0 3 -56 0c0,8 2,14 6,19 3,4 7,7 12,7 8,0 12,-5 15,-15zm1 -28c0,-8 -2,-14 -5,-18 -3,-4 -7,-6 -12,-6 -5,0 -9,2 -12,6 -3,4 -5,10 -5,18l34 0z"/>
   <path id="9" class="fil0" d="M8327 1973l-21 0 0 -15c-3,5 -7,10 -12,13 -4,3 -9,4 -14,4 -10,0 -18,-5 -25,-14 -7,-10 -10,-23 -10,-41 0,-17 3,-31 10,-40 7,-9 15,-13 25,-13 5,0 9,1 14,3 4,3 7,6 11,11l0 -51 22 0 0 143zm-59 -54c0,9 0,16 2,21 1,4 4,8 7,10 3,2 6,4 10,4 5,0 9,-3 12,-8 4,-6 6,-14 6,-25 0,-11 -2,-20 -5,-25 -4,-6 -8,-8 -14,-8 -5,0 -9,2 -13,8 -4,5 -5,12 -5,23z"/>
   <path id="10" class="fil0" d="M8350 1855l0 -25 22 0 0 25 -22 0zm0 118l0 -104 22 0 0 104 -22 0z"/>
   <path id="11" class="fil0" d="M8434 1869l0 22 -15 0 0 42c0,9 0,14 0,16 1,2 3,3 6,3 2,0 5,0 9,-2l2 21c-6,3 -11,4 -18,4 -6,0 -10,-1 -14,-4 -3,-3 -5,-7 -7,-12 -1,-4 -1,-11 -1,-23l0 -45 -10 0 0 -22 10 0 0 -20 23 -16 0 36 15 0z"/>
   <path id="12" class="fil0" d="M8499 1940l22 4c-3,11 -8,19 -14,24 -6,5 -14,7 -23,7 -13,0 -22,-4 -29,-12 -8,-10 -12,-24 -12,-41 0,-18 4,-32 12,-42 7,-9 16,-13 27,-13 12,0 21,4 28,13 8,11 12,26 12,46l0 3 -56 0c0,8 2,14 5,19 4,4 8,7 13,7 7,0 12,-5 15,-15zm1 -28c0,-8 -2,-14 -5,-18 -4,-4 -7,-6 -12,-6 -5,0 -9,2 -12,6 -3,4 -5,10 -5,18l34 0z"/>
   <path id="13" class="fil0" d="M8618 1973l-21 0 0 -15c-3,5 -7,10 -12,13 -5,3 -9,4 -14,4 -10,0 -18,-5 -25,-14 -7,-10 -11,-23 -11,-41 0,-17 4,-31 11,-40 7,-9 15,-13 25,-13 5,0 9,1 13,3 4,3 8,6 12,11l0 -51 22 0 0 143zm-60 -54c0,9 1,16 3,21 1,4 4,8 7,10 3,2 6,4 10,4 4,0 9,-3 12,-8 4,-6 6,-14 6,-25 0,-11 -2,-20 -6,-25 -3,-6 -8,-8 -13,-8 -5,0 -10,2 -13,8 -4,5 -6,12 -6,23z"/>
   <path id="14" class="fil0" d="M8686 1973l0 -143 38 0c14,0 23,1 28,2 7,2 13,7 17,14 5,7 7,17 7,28 0,10 -2,19 -6,26 -4,7 -9,12 -15,15 -6,2 -16,4 -30,4l-15 0 0 54 -24 0zm24 -119l0 41 13 0c8,0 15,-1 18,-2 3,-1 5,-4 7,-7 2,-3 3,-7 3,-12 0,-4 -1,-8 -3,-12 -2,-3 -4,-5 -7,-6 -3,-1 -10,-2 -20,-2l-11 0z"/>
   <path id="15" class="fil0" d="M8816 1973l-22 0 0 -104 21 0 0 15c3,-7 7,-12 9,-14 3,-2 7,-3 10,-3 5,0 10,2 15,5l-7 24c-4,-3 -7,-5 -11,-5 -3,0 -5,2 -8,4 -2,2 -4,6 -5,12 -1,6 -2,18 -2,34l0 32z"/>
   <path id="16" class="fil0" d="M8853 1920c0,-11 2,-20 6,-28 4,-8 9,-15 16,-19 6,-4 14,-6 22,-6 14,0 24,5 32,16 8,11 12,23 12,37 0,11 -2,21 -6,29 -4,9 -10,15 -16,20 -7,4 -14,6 -22,6 -13,0 -23,-5 -31,-14 -9,-10 -13,-24 -13,-41zm23 1c0,10 2,18 6,24 4,5 9,8 15,8 6,0 11,-3 15,-8 4,-6 6,-14 6,-24 0,-10 -2,-18 -6,-24 -5,-5 -9,-8 -15,-8 -6,0 -11,3 -15,8 -4,6 -6,14 -6,24z"/>
   <path id="17" class="fil0" d="M8956 1980l26 3c1,4 2,7 4,8 2,2 5,3 9,3 5,0 9,-1 12,-3 2,-1 4,-3 5,-6 1,-2 2,-7 2,-14l0 -15c-4,6 -7,10 -12,13 -4,2 -9,4 -14,4 -9,0 -17,-4 -23,-13 -8,-10 -12,-23 -12,-40 0,-17 4,-31 11,-40 7,-9 15,-13 25,-13 6,0 10,1 15,4 4,3 8,7 11,13l0 -15 21 0 0 93c0,15 -1,26 -4,32 -3,7 -7,12 -12,16 -6,3 -14,5 -24,5 -9,0 -17,-2 -22,-4 -6,-2 -10,-6 -13,-11 -3,-5 -5,-11 -5,-17l0 -3zm20 -61c0,11 2,19 6,24 3,5 8,7 13,7 5,0 10,-2 13,-7 4,-5 6,-13 6,-24 0,-10 -2,-18 -5,-23 -4,-6 -9,-8 -14,-8 -5,0 -10,2 -13,7 -4,5 -6,13 -6,24z"/>
   <path id="18" class="fil0" d="M9080 1973l-23 0 0 -104 21 0 0 15c4,-7 7,-12 10,-14 3,-2 6,-3 10,-3 5,0 10,2 14,5l-7 24c-3,-3 -7,-5 -10,-5 -3,0 -6,2 -8,4 -3,2 -4,6 -5,12 -2,6 -2,18 -2,34l0 32z"/>
   <path id="19" class="fil0" d="M9139 1901l-20 -4c2,-11 6,-19 12,-23 5,-5 14,-7 24,-7 10,0 17,1 22,4 5,2 8,6 11,11 2,4 3,13 3,25l0 32c0,9 0,15 1,20 0,4 2,9 4,14l-23 0 -2 -12c-4,5 -8,8 -13,11 -4,2 -9,3 -14,3 -8,0 -15,-3 -20,-8 -5,-6 -8,-13 -8,-22 0,-6 1,-11 3,-16 2,-4 5,-8 9,-10 4,-3 10,-5 19,-7 11,-3 18,-5 22,-7 0,-6 -1,-9 -1,-11 -1,-2 -3,-3 -5,-5 -2,-1 -5,-1 -9,-1 -4,0 -7,1 -9,3 -3,1 -5,5 -6,10zm30 22c-3,1 -7,2 -14,4 -6,2 -11,4 -13,6 -2,2 -3,5 -3,9 0,4 1,7 3,10 3,2 6,4 9,4 3,0 6,-1 10,-3 3,-3 5,-5 6,-8 1,-3 2,-9 2,-17l0 -5z"/>
   <path id="20" class="fil0" d="M9211 1869l21 0 0 14c4,-5 8,-9 12,-12 5,-3 10,-4 15,-4 5,0 10,1 14,4 4,3 7,7 10,12 3,-5 7,-9 12,-12 4,-3 9,-4 13,-4 6,0 11,1 15,4 5,3 8,7 10,12 2,5 3,13 3,24l0 66 -22 0 0 -59c0,-11 -1,-18 -3,-21 -2,-4 -5,-5 -9,-5 -5,0 -9,2 -12,7 -3,5 -5,14 -5,28l0 50 -23 0 0 -57c0,-11 0,-19 -1,-22 -2,-4 -5,-6 -10,-6 -4,0 -7,1 -9,3 -3,2 -5,6 -6,10 -2,4 -2,11 -2,21l0 51 -23 0 0 -104z"/>
   <path class="fil0" d="M7282 2206l0 -143 35 0c14,0 22,0 26,2 7,2 12,7 16,14 5,7 7,16 7,28 0,10 -2,19 -6,26 -3,7 -8,12 -13,15 -6,2 -15,4 -29,4l-14 0 0 54 -22 0zm22 -119l0 41 12 0c8,0 14,-1 17,-2 3,-1 5,-4 7,-7 2,-3 3,-7 3,-12 0,-5 -1,-9 -3,-12 -2,-3 -4,-5 -7,-6 -3,-1 -9,-2 -18,-2l-11 0z"/>
   <polygon id="1" class="fil0" points="7384,2206 7384,2063 7465,2063 7465,2087 7406,2087 7406,2118 7461,2118 7461,2143 7406,2143 7406,2181 7467,2181 7467,2206 "/>
   <path id="2" class="fil0" d="M7486 2206l0 -143 46 0c12,0 21,1 26,4 5,2 9,7 12,13 4,6 5,14 5,23 0,11 -2,20 -7,27 -5,7 -12,11 -22,13 5,3 9,7 12,12 3,4 8,12 13,23l13 28 -26 0 -16 -31c-6,-12 -10,-19 -12,-22 -2,-2 -4,-4 -7,-5 -2,-1 -6,-2 -11,-2l-4 0 0 60 -22 0zm22 -83l16 0c10,0 17,0 19,-1 3,-1 5,-3 7,-6 2,-3 3,-7 3,-11 0,-5 -1,-9 -3,-11 -2,-3 -4,-5 -7,-6 -2,-1 -8,-1 -18,-1l-17 0 0 36z"/>
   <path id="3" class="fil0" d="M7591 2159l21 -3c2,19 10,28 24,28 7,0 12,-2 16,-6 4,-4 6,-8 6,-14 0,-3 -1,-6 -3,-8 -1,-2 -3,-4 -6,-6 -2,-1 -9,-4 -20,-7 -9,-3 -16,-6 -20,-10 -5,-3 -8,-8 -11,-14 -2,-6 -4,-12 -4,-19 0,-7 2,-14 5,-21 4,-6 8,-11 14,-14 6,-3 13,-5 22,-5 13,0 23,4 30,12 7,7 11,18 12,32l-23 1c-1,-8 -3,-13 -6,-16 -3,-3 -8,-5 -14,-5 -6,0 -10,2 -14,4 -3,3 -4,6 -4,10 0,4 1,7 4,10 3,2 10,5 20,9 11,3 19,7 24,11 5,3 9,8 12,14 2,6 4,14 4,22 0,13 -4,23 -11,31 -7,9 -18,13 -34,13 -26,0 -41,-16 -44,-49z"/>
   <path id="4" class="fil0" d="M7694 2135c0,-17 2,-31 7,-42 4,-11 11,-19 18,-25 8,-5 17,-8 28,-8 15,0 28,7 38,20 10,12 15,31 15,54 0,24 -5,43 -16,56 -9,12 -21,18 -37,18 -16,0 -29,-6 -38,-18 -10,-13 -15,-31 -15,-55zm22 -1c0,17 3,29 9,37 6,8 13,12 22,12 9,0 16,-4 21,-12 6,-8 9,-21 9,-37 0,-17 -3,-29 -8,-37 -6,-8 -13,-12 -22,-12 -9,0 -16,4 -22,12 -6,8 -9,20 -9,37z"/>
   <polygon id="5" class="fil0" points="7818,2206 7818,2063 7839,2063 7884,2158 7884,2063 7904,2063 7904,2206 7882,2206 7838,2113 7838,2206 "/>
   <polygon id="6" class="fil0" points="7928,2206 7928,2063 7949,2063 7994,2158 7994,2063 8015,2063 8015,2206 7993,2206 7948,2113 7948,2206 "/>
   <polygon id="7" class="fil0" points="8038,2206 8038,2063 8119,2063 8119,2087 8060,2087 8060,2118 8115,2118 8115,2143 8060,2143 8060,2181 8121,2181 8121,2206 "/>
   <polygon id="8" class="fil0" points="8140,2206 8140,2064 8162,2064 8162,2181 8217,2181 8217,2206 "/>
   <path id="9" class="fil0" d="M8343 2153l22 9c-4,16 -9,28 -17,35 -8,7 -17,11 -29,11 -14,0 -26,-6 -34,-18 -11,-13 -16,-31 -16,-55 0,-24 5,-43 16,-57 9,-12 21,-18 36,-18 12,0 22,5 30,14 6,6 11,16 13,28l-21 7c-2,-8 -5,-14 -9,-18 -4,-4 -9,-6 -15,-6 -8,0 -14,4 -19,11 -5,8 -8,20 -8,38 0,18 3,30 7,38 5,8 12,11 20,11 6,0 11,-2 15,-7 4,-5 7,-12 9,-23z"/>
   <polygon id="10" class="fil0" points="8384,2206 8384,2063 8465,2063 8465,2087 8406,2087 8406,2118 8461,2118 8461,2143 8406,2143 8406,2181 8467,2181 8467,2206 "/>
   <path id="11" class="fil0" d="M8486 2206l0 -143 46 0c12,0 20,1 26,4 5,2 9,7 12,13 3,6 5,14 5,23 0,11 -2,20 -7,27 -5,7 -13,11 -22,13 5,3 9,7 12,12 3,4 7,12 13,23l13 28 -26 0 -16 -31c-6,-12 -10,-19 -12,-22 -2,-2 -4,-4 -7,-5 -2,-1 -6,-2 -11,-2l-4 0 0 60 -22 0zm22 -83l16 0c10,0 16,0 19,-1 3,-1 5,-3 7,-6 1,-3 2,-7 2,-11 0,-5 -1,-9 -2,-11 -2,-3 -4,-5 -7,-6 -2,-1 -8,-1 -18,-1l-17 0 0 36z"/>
   <polygon id="12" class="fil0" points="8621,2206 8621,2087 8588,2087 8588,2063 8675,2063 8675,2087 8643,2087 8643,2206 "/>
   <polygon id="13" class="fil0" points="8689,2206 8689,2063 8711,2063 8711,2206 "/>
   <polygon id="14" class="fil0" points="8732,2206 8732,2063 8807,2063 8807,2087 8754,2087 8754,2121 8800,2121 8800,2145 8754,2145 8754,2206 "/>
   <polygon id="15" class="fil0" points="8825,2206 8825,2063 8847,2063 8847,2206 "/>
   <path id="16" class="fil0" d="M8938 2153l21 9c-3,16 -9,28 -16,35 -8,7 -18,11 -29,11 -14,0 -26,-6 -35,-18 -10,-13 -15,-31 -15,-55 0,-24 5,-43 15,-57 9,-12 21,-18 36,-18 13,0 23,5 31,14 6,6 10,16 13,28l-22 7c-1,-8 -4,-14 -8,-18 -4,-4 -9,-6 -15,-6 -8,0 -15,4 -20,11 -5,8 -7,20 -7,38 0,18 2,30 7,38 5,8 12,11 19,11 6,0 11,-2 16,-7 4,-5 7,-12 9,-23z"/>
   <path id="17" class="fil0" d="M9077 2206l-24 0 -9 -33 -44 0 -9 33 -24 0 43 -143 23 0 44 143zm-41 -57l-15 -53 -15 53 30 0z"/>
   <polygon id="18" class="fil0" points="9102,2206 9102,2087 9070,2087 9070,2063 9156,2063 9156,2087 9124,2087 9124,2206 "/>
   <polygon id="19" class="fil0" points="9170,2206 9170,2063 9192,2063 9192,2206 "/>
   <path id="20" class="fil0" d="M9209 2135c0,-17 2,-31 7,-42 5,-11 11,-19 18,-25 8,-5 17,-8 28,-8 16,0 28,7 38,20 10,12 15,31 15,54 0,24 -5,43 -16,56 -9,12 -21,18 -37,18 -16,0 -28,-6 -37,-18 -11,-13 -16,-31 -16,-55zm23 -1c0,17 3,29 8,37 6,8 13,12 22,12 9,0 16,-4 22,-12 5,-8 8,-21 8,-37 0,-17 -3,-29 -8,-37 -6,-8 -13,-12 -22,-12 -9,0 -16,4 -22,12 -6,8 -8,20 -8,37z"/>
   <polygon id="21" class="fil0" points="9333,2206 9333,2063 9354,2063 9399,2158 9399,2063 9420,2063 9420,2206 9397,2206 9353,2113 9353,2206 "/>
   <path class="fil0" d="M8180 2395l-12 0 0 -22 16 0 5 -29 -21 0 0 -21 25 0 7 -38 20 0 -7 38 20 0 7 -38 21 0 -7 38 12 0 0 21 -16 0 -6 29 22 0 0 22 -26 0 -7 38 -20 0 7 -38 -20 0 -7 38 -20 0 7 -38zm29 -51l-5 29 20 0 5 -29 -20 0z"/>
   <path id="1" class="fil0" d="M8341 2430l-26 0 0 -103c-9,10 -20,16 -32,21l0 -25c7,-3 14,-7 22,-14 7,-6 13,-14 15,-22l21 0 0 143z"/>
   <path id="2" class="fil0" d="M8421 2287c13,0 23,5 31,16 8,11 12,30 12,57 0,27 -4,46 -12,56 -8,11 -18,17 -31,17 -12,0 -23,-6 -31,-16 -8,-11 -11,-30 -11,-57 0,-27 3,-46 11,-57 8,-11 18,-16 31,-16zm0 23c-5,0 -9,3 -12,9 -3,5 -4,19 -4,41 0,22 1,35 4,41 3,6 7,9 12,9 5,0 9,-3 12,-9 3,-6 4,-19 4,-41 0,-22 -1,-36 -4,-41 -3,-6 -7,-9 -12,-9z"/>
   <path id="3" class="fil0" d="M8523 2287c13,0 24,5 31,16 8,11 12,30 12,57 0,27 -4,46 -12,56 -7,11 -18,17 -30,17 -13,0 -24,-6 -31,-16 -8,-11 -12,-30 -12,-57 0,-27 4,-46 12,-57 7,-11 18,-16 30,-16zm0 23c-4,0 -8,3 -11,9 -3,5 -5,19 -5,41 0,22 2,35 5,41 3,6 7,9 11,9 5,0 9,-3 12,-9 3,-6 5,-19 5,-41 0,-22 -2,-36 -5,-41 -3,-6 -7,-9 -12,-9z"/>
   <path id="4" class="fil0" d="M8583 2394l26 -3c0,6 2,11 6,14 4,4 8,6 12,6 5,0 10,-3 13,-7 4,-5 6,-12 6,-21 0,-9 -2,-16 -5,-20 -4,-4 -9,-6 -15,-6 -7,0 -13,3 -19,10l-21 -3 13 -75 67 0 0 26 -47 0 -5 24c6,-3 12,-4 18,-4 10,0 19,3 26,11 9,9 14,21 14,36 0,13 -4,24 -12,35 -8,10 -19,16 -33,16 -12,0 -22,-4 -29,-11 -8,-6 -13,-16 -15,-28z"/>
   <path class="fil0" d="M7665 2615l26 9c-4,16 -11,27 -20,35 -10,7 -21,11 -35,11 -17,0 -31,-6 -42,-18 -12,-13 -18,-32 -18,-55 0,-24 6,-43 19,-57 10,-12 25,-18 43,-18 15,0 27,5 37,14 7,6 12,16 15,28l-26 7c-1,-8 -5,-14 -10,-18 -5,-4 -11,-6 -18,-6 -9,0 -17,4 -23,11 -6,8 -10,20 -10,38 0,18 3,30 9,38 6,7 14,11 24,11 7,0 13,-2 18,-7 5,-5 9,-13 11,-23z"/>
   <polygon id="1" class="fil0" points="7713,2668 7713,2525 7739,2525 7739,2668 "/>
   <polygon id="2" class="fil0" points="7764,2668 7764,2525 7804,2525 7828,2622 7851,2525 7891,2525 7891,2668 7867,2668 7867,2555 7840,2668 7815,2668 7789,2555 7789,2668 "/>
   <path id="3" class="fil0" d="M8036 2668l-28 0 -12 -33 -52 0 -11 33 -29 0 52 -143 28 0 52 143zm-48 -57l-18 -53 -18 53 36 0z"/>
   <path class="fil0" d="M8262 2615l24 9c-4,16 -10,27 -18,35 -9,7 -19,11 -31,11 -16,0 -28,-6 -38,-18 -11,-13 -16,-32 -16,-55 0,-24 5,-43 16,-57 10,-12 23,-18 39,-18 13,0 24,5 33,14 7,6 11,16 14,28l-23 7c-2,-8 -5,-14 -9,-18 -5,-4 -10,-6 -16,-6 -9,0 -16,4 -21,11 -6,8 -9,20 -9,38 0,18 3,30 8,38 6,7 13,11 21,11 6,0 12,-2 16,-7 5,-5 8,-13 10,-23z"/>
   <path id="1" class="fil0" d="M8355 2635l23 4c-3,11 -8,18 -14,23 -6,5 -14,8 -23,8 -13,0 -23,-4 -30,-13 -8,-9 -12,-23 -12,-41 0,-17 4,-31 12,-41 7,-9 16,-13 27,-13 13,0 22,4 29,13 8,10 12,26 12,46l0 3 -57 0c0,8 2,14 6,19 3,4 8,6 13,6 7,0 12,-4 14,-14zm2 -28c-1,-8 -2,-14 -6,-18 -3,-4 -7,-6 -11,-6 -5,0 -9,2 -12,6 -4,4 -5,10 -5,18l34 0z"/>
   <path id="2" class="fil0" d="M8419 2668l-23 0 0 -104 22 0 0 15c3,-7 6,-12 9,-14 3,-2 6,-3 10,-3 5,0 10,1 15,5l-7 24c-4,-3 -7,-5 -11,-5 -3,0 -6,1 -8,4 -2,2 -4,6 -5,12 -1,6 -2,17 -2,34l0 32z"/>
   <path id="3" class="fil0" d="M8501 2564l0 22 -16 0 0 42c0,9 1,14 1,15 1,3 3,4 6,4 2,0 5,-1 9,-2l2 21c-6,3 -12,4 -18,4 -6,0 -11,-1 -14,-4 -4,-3 -6,-7 -7,-12 -1,-4 -1,-11 -1,-23l0 -45 -11 0 0 -22 11 0 0 -20 22 -16 0 36 16 0z"/>
   <path id="4" class="fil0" d="M8516 2550l0 -25 23 0 0 25 -23 0zm0 118l0 -104 23 0 0 104 -23 0z"/>
   <path id="5" class="fil0" d="M8553 2564l13 0 0 -8c0,-9 0,-16 2,-20 2,-4 5,-8 9,-10 4,-2 9,-4 15,-4 6,0 12,2 19,4l-3 19c-4,-1 -7,-2 -11,-2 -3,0 -5,1 -7,3 -1,2 -2,5 -2,11l0 7 17 0 0 22 -17 0 0 82 -22 0 0 -82 -13 0 0 -22zm63 -14l0 -25 23 0 0 25 -23 0zm0 118l0 -104 23 0 0 104 -23 0z"/>
   <path id="6" class="fil0" d="M8738 2595l-23 5c-1,-11 -6,-17 -15,-17 -6,0 -10,3 -14,7 -3,5 -5,13 -5,24 0,12 2,21 5,26 4,5 8,8 14,8 4,0 8,-2 10,-5 3,-3 5,-8 6,-15l23 4c-5,25 -18,38 -40,38 -14,0 -24,-5 -31,-16 -7,-10 -10,-23 -10,-38 0,-18 4,-31 12,-40 7,-10 17,-14 30,-14 10,0 18,2 24,8 6,5 11,13 14,25z"/>
   <path id="7" class="fil0" d="M8772 2596l-21 -5c3,-10 7,-18 13,-22 5,-5 14,-7 24,-7 10,0 17,1 22,4 5,2 9,6 11,11 2,4 3,12 3,25l0 32c0,9 0,15 1,20 1,4 2,9 4,14l-22 0 -3 -12c-4,5 -8,8 -13,11 -4,2 -9,3 -14,3 -8,0 -15,-3 -20,-8 -6,-6 -8,-13 -8,-23 0,-5 1,-11 3,-15 2,-4 5,-8 9,-10 4,-3 10,-5 19,-7 11,-3 18,-5 22,-7 0,-6 0,-10 -1,-11 -1,-2 -3,-4 -5,-5 -2,-1 -5,-1 -9,-1 -4,0 -7,0 -10,2 -2,2 -4,6 -5,11zm30 22c-3,1 -7,2 -13,4 -8,2 -12,4 -14,6 -2,2 -4,5 -4,9 0,3 2,7 4,10 2,2 5,4 9,4 3,0 6,-1 10,-4 3,-2 5,-4 6,-7 1,-3 2,-9 2,-17l0 -5z"/>
   <path id="8" class="fil0" d="M8886 2564l0 22 -16 0 0 42c0,9 0,14 1,15 1,3 3,4 6,4 2,0 5,-1 9,-2l1 21c-5,3 -11,4 -17,4 -6,0 -11,-1 -14,-4 -4,-3 -6,-7 -7,-12 -1,-4 -2,-11 -2,-23l0 -45 -10 0 0 -22 10 0 0 -20 23 -16 0 36 16 0z"/>
   <path id="9" class="fil0" d="M8901 2550l0 -25 23 0 0 25 -23 0zm0 118l0 -104 23 0 0 104 -23 0z"/>
   <path id="10" class="fil0" d="M8942 2614c0,-10 2,-19 6,-27 4,-9 9,-15 16,-19 6,-4 14,-6 22,-6 14,0 24,5 32,16 8,10 12,23 12,37 0,11 -2,21 -6,29 -4,9 -10,15 -16,19 -7,5 -14,7 -22,7 -13,0 -23,-5 -32,-14 -8,-10 -12,-24 -12,-42zm23 2c0,10 2,18 6,24 4,5 9,8 15,8 6,0 11,-3 15,-8 4,-6 6,-14 6,-24 0,-11 -2,-19 -6,-24 -4,-5 -9,-8 -15,-8 -6,0 -11,3 -15,8 -4,5 -6,13 -6,24z"/>
   <path id="11" class="fil0" d="M9126 2668l-23 0 0 -53c0,-11 -1,-18 -1,-21 -1,-4 -3,-7 -5,-9 -2,-1 -5,-2 -8,-2 -4,0 -7,1 -10,3 -3,3 -6,6 -7,10 -1,5 -2,13 -2,25l0 47 -22 0 0 -104 21 0 0 15c3,-6 8,-10 12,-13 5,-3 10,-4 16,-4 6,0 12,1 17,5 4,3 7,8 9,13 2,5 3,13 3,23l0 65z"/>
   <path class="fil0" d="M8018 2870l-29 0 -11 -33 -53 0 -11 33 -28 0 51 -143 28 0 53 143zm-49 -57l-18 -53 -18 53 36 0z"/>
   <path id="1" class="fil0" d="M8115 2797l-25 5c-2,-11 -8,-17 -17,-17 -7,0 -12,3 -15,7 -4,5 -6,13 -6,24 0,12 2,21 6,26 3,5 8,8 15,8 4,0 8,-2 11,-5 4,-2 6,-8 7,-15l25 5c-5,25 -20,37 -44,37 -16,0 -27,-5 -35,-16 -7,-10 -11,-23 -11,-38 0,-17 4,-31 13,-40 8,-10 19,-14 33,-14 11,0 21,3 28,8 7,5 12,13 15,25z"/>
   <path id="2" class="fil0" d="M8217 2797l-25 5c-2,-11 -7,-17 -17,-17 -6,0 -11,3 -15,7 -4,5 -6,13 -6,24 0,12 2,21 6,26 4,5 9,8 15,8 5,0 9,-2 12,-5 3,-2 5,-8 6,-15l25 5c-5,25 -20,37 -44,37 -15,0 -27,-5 -34,-16 -8,-10 -12,-23 -12,-38 0,-17 5,-31 13,-40 9,-10 20,-14 34,-14 11,0 20,3 27,8 7,5 12,13 15,25z"/>
   <path id="3" class="fil0" d="M8260 2870l-25 0 0 -104 24 0 0 15c4,-7 7,-12 10,-14 4,-2 7,-3 11,-3 6,0 12,2 17,5l-8 24c-4,-3 -8,-5 -12,-5 -3,0 -6,2 -9,4 -3,2 -5,6 -6,12 -1,6 -2,18 -2,34l0 32z"/>
   <path id="4" class="fil0" d="M8363 2837l25 4c-3,11 -8,19 -16,24 -7,5 -15,7 -25,7 -15,0 -25,-4 -33,-12 -9,-10 -14,-24 -14,-41 0,-18 5,-32 14,-42 8,-9 18,-13 30,-13 14,0 24,4 32,13 9,11 13,26 13,46l0 3 -63 0c0,8 2,14 6,19 4,4 9,7 15,7 8,0 13,-5 16,-15zm1 -28c0,-8 -2,-14 -5,-18 -4,-4 -8,-6 -14,-6 -5,0 -9,2 -13,6 -4,4 -6,10 -6,18l38 0z"/>
   <path id="5" class="fil0" d="M8497 2870l-23 0 0 -15c-4,5 -9,10 -14,13 -5,3 -10,4 -16,4 -11,0 -20,-5 -28,-14 -8,-10 -12,-23 -12,-41 0,-17 4,-31 12,-40 8,-9 17,-13 28,-13 6,0 11,1 15,3 5,3 9,6 13,11l0 -51 25 0 0 143zm-67 -54c0,9 1,16 3,21 2,4 4,8 7,10 4,2 7,4 12,4 5,0 10,-3 14,-8 4,-6 6,-14 6,-25 0,-11 -2,-20 -6,-25 -4,-6 -9,-8 -15,-8 -6,0 -11,2 -15,8 -4,5 -6,12 -6,23z"/>
   <path id="6" class="fil0" d="M8522 2752l0 -25 26 0 0 25 -26 0zm0 118l0 -104 26 0 0 104 -26 0z"/>
   <path id="7" class="fil0" d="M8617 2766l0 22 -17 0 0 42c0,9 0,14 1,16 1,2 3,3 6,3 2,0 6,0 10,-2l2 21c-6,3 -12,4 -20,4 -6,0 -11,-1 -15,-4 -4,-3 -7,-7 -8,-12 -1,-4 -2,-11 -2,-23l0 -45 -11 0 0 -22 11 0 0 -20 26 -16 0 36 17 0z"/>
   <path id="8" class="fil0" d="M8690 2837l25 4c-3,11 -9,19 -16,24 -7,5 -15,7 -26,7 -14,0 -25,-4 -32,-12 -9,-10 -14,-24 -14,-41 0,-18 5,-32 14,-42 8,-9 18,-13 30,-13 14,0 24,4 32,13 9,11 13,26 13,46l0 3 -63 0c0,8 2,14 6,19 4,4 9,7 15,7 8,0 13,-5 16,-15zm1 -28c0,-8 -2,-14 -6,-18 -3,-4 -8,-6 -13,-6 -5,0 -9,2 -13,6 -4,4 -6,10 -6,18l38 0z"/>
   <path id="9" class="fil0" d="M8824 2870l-23 0 0 -15c-4,5 -9,10 -14,13 -5,3 -11,4 -16,4 -11,0 -20,-5 -28,-14 -8,-10 -12,-23 -12,-41 0,-17 4,-31 12,-40 8,-9 17,-13 28,-13 6,0 11,1 15,3 5,3 9,6 13,11l0 -51 25 0 0 143zm-67 -54c0,9 1,16 3,21 1,4 4,8 7,10 4,2 7,4 12,4 5,0 10,-3 14,-8 4,-6 6,-14 6,-25 0,-11 -2,-20 -6,-25 -4,-6 -9,-8 -15,-8 -6,0 -11,2 -15,8 -4,5 -6,12 -6,23z"/>
   <path class="fil0" d="M8063 2566l4 0c5,0 8,0 9,0 2,0 3,-1 4,-2 1,-1 2,-3 2,-4 0,-2 -1,-3 -2,-4 -1,-2 -3,-2 -4,-2 -2,-1 -5,-1 -9,-1l-4 0 0 13zm32 27l-12 0 -4 -8c-3,-5 -5,-8 -7,-9 -1,-2 -4,-3 -7,-3l-2 0 0 20 -9 0 0 -47 16 0c6,0 10,0 13,1 2,0 4,2 6,4 2,2 3,5 3,8 0,4 -1,6 -4,9 -2,2 -5,4 -9,4 2,1 4,2 5,3 1,1 3,4 5,8l6 10zm13 -24c0,-10 -3,-18 -10,-25 -7,-7 -16,-10 -25,-10 -10,0 -18,3 -25,10 -7,7 -11,15 -11,25 0,10 4,18 11,25 7,7 15,10 25,10 9,0 18,-3 25,-10 7,-7 10,-15 10,-25zm9 0c0,12 -5,23 -13,31 -9,9 -19,13 -31,13 -12,0 -23,-4 -31,-13 -9,-8 -13,-19 -13,-31 0,-12 4,-22 13,-31 8,-9 19,-13 31,-13 12,0 22,4 31,13 8,9 13,19 13,31z"/>
   <rect class="fil1" x="6648" y="44" width="29.5716" height="2912.63"/>
  </g>
 </g>
</svg>
