<?xml version="1.0" encoding="utf-8"?>
<!-- Generator: Adobe Illustrator 16.0.0, SVG Export Plug-In . SVG Version: 6.00 Build 0)  -->
<!DOCTYPE svg PUBLIC "-//W3C//DTD SVG 1.1//EN" "http://www.w3.org/Graphics/SVG/1.1/DTD/svg11.dtd">
<svg version="1.1" id="Layer_1" xmlns="http://www.w3.org/2000/svg" xmlns:xlink="http://www.w3.org/1999/xlink" x="0px" y="0px"
	 width="141.732px" height="68.031px" viewBox="0 0 141.732 68.031" enable-background="new 0 0 141.732 68.031"
	 xml:space="preserve">
<g id="__x0023_Layer_x0020_1Â_x00a0_Image">
	<path fill="#FFFFFF" d="M100.091,56.154h6.576v10.63H95.301v-10.63h-7.966v-2.069l16.697-20.636l-16.697-20.58l-1.02-1.247h1.02
		V1.247h19.332v10.375h-5.924l5.924,7.285l4.593,5.641l4.593-5.669l5.867-7.257h-5.867V1.247h25.88v10.375h-5.556L118.46,33.449
		l18.426,22.706h4.847c0,3.459,0,7.172,0,10.63h-25.88v-10.63h6.604l-6.604-8.135l-4.593-5.67l0,0l-4.593,5.67L100.091,56.154z"/>
	<polygon fill="#FFFFFF" points="95.301,56.154 95.301,66.784 87.335,66.784 80.646,66.784 80.646,58.848 80.646,56.154 
		82.8,56.154 85.635,56.154 87.335,54.085 87.335,56.154 	"/>
	<polygon fill="#FFFFFF" points="86.315,11.622 80.646,11.622 80.646,1.247 87.335,1.247 87.335,11.622 	"/>
	<path fill="#FFFFFF" d="M76.876,11.622h-6.917V1.247h6.917h3.77v10.375h5.67l1.02,1.247v28.517v0.085v12.614l-1.7,2.069H82.8
		h-2.154v2.693v7.937h-3.77v-4.592c-4.025,2.892-8.958,4.592-14.372,4.592c-7.398,0-14.06-3.175-18.708-8.249
		c1.899-2.126,3.43-4.563,4.507-7.256h-9.184c-0.397-0.965-0.737-1.928-1.021-2.92c-0.284-0.936-0.482-1.871-0.652-2.863h1.757
		h8.958c0.283,0.992,0.652,1.928,1.134,2.834c2.495,4.678,7.427,7.881,13.096,7.881c8.164,0,14.429-6.604,14.485-14.74v-0.085
		c0-8.192-6.293-14.825-14.485-14.825c-5.669,0-10.602,3.203-13.096,7.909c-1.049-3.883-2.948-7.37-5.499-10.233
		c4.648-5.074,11.31-8.249,18.708-8.249c5.414,0,10.347,1.701,14.372,4.592V11.622z"/>
	<path fill="#FFFFFF" d="M50.202,41.386c0,1.417-0.113,2.778-0.312,4.11h-1.729c-0.397-1.304-0.595-2.693-0.595-4.11
		c0-1.503,0.227-2.977,0.652-4.337c0.284-0.907,0.652-1.785,1.077-2.58c0.227,0.822,0.425,1.701,0.567,2.58
		C50.088,38.438,50.202,39.912,50.202,41.386z"/>
	<path fill="#FFFFFF" d="M39.118,51.279h9.184c-1.077,2.692-2.608,5.13-4.507,7.256C41.839,56.409,40.252,53.972,39.118,51.279z"/>
	<path fill="#FFFFFF" d="M48.217,37.049c-0.425,1.36-0.652,2.834-0.652,4.337c0,1.417,0.198,2.807,0.595,4.11h-8.958h-1.757
		c-0.199-1.332-0.312-2.693-0.312-4.11c0-1.474,0.113-2.948,0.369-4.337h1.644c-0.284-0.936-0.624-1.814-1.049-2.636
		c1.077-3.855,3.062-7.313,5.698-10.176c2.551,2.863,4.45,6.35,5.499,10.233C48.869,35.264,48.501,36.142,48.217,37.049z"/>
	<path fill="#FFFFFF" d="M43.795,58.535c-4.479,5.074-10.999,8.249-18.397,8.249c-12.614,0-23.103-9.212-25.058-21.288
		C0.113,44.164,0,42.803,0,41.386c0-1.474,0.142-2.948,0.369-4.337c2.069-11.962,12.472-21.062,25.03-21.062
		c7.398,0,13.918,3.175,18.397,8.249c-2.636,2.863-4.621,6.321-5.698,10.176c-2.41-4.677-7.172-7.852-12.813-7.852
		c-6.69,0-12.331,4.422-14.173,10.488h26.391c-0.255,1.389-0.369,2.863-0.369,4.337c0,1.417,0.113,2.778,0.312,4.11H11.027
		c1.786,6.18,7.483,10.715,14.258,10.715c4.394,0,8.22-1.898,10.856-4.932h2.977C40.252,53.972,41.839,56.409,43.795,58.535z"/>
	<path fill="#FFFFFF" d="M39.146,37.049h-1.644c0.142-0.907,0.34-1.785,0.595-2.636C38.523,35.234,38.863,36.113,39.146,37.049z"/>
</g>
</svg>
