<?xml version="1.0" encoding="UTF-8"?>
<!DOCTYPE svg PUBLIC "-//W3C//DTD SVG 1.1//EN" "http://www.w3.org/Graphics/SVG/1.1/DTD/svg11.dtd">
<!-- Creator: CorelDRAW X7 -->
<svg xmlns="http://www.w3.org/2000/svg" xml:space="preserve" width="50mm" height="24mm" version="1.1" style="shape-rendering:geometricPrecision; text-rendering:geometricPrecision; image-rendering:optimizeQuality; fill-rule:evenodd; clip-rule:evenodd"
viewBox="0 0 5000 2400"
 xmlns:xlink="http://www.w3.org/1999/xlink">
 <defs>
  <style type="text/css">
   <![CDATA[
    .fil0 {fill:#00A0E2;fill-rule:nonzero}
    .fil1 {fill:#0169A3;fill-rule:nonzero}
    .fil4 {fill:#771F2D;fill-rule:nonzero}
    .fil2 {fill:#898C8E;fill-rule:nonzero}
    .fil3 {fill:#B62667;fill-rule:nonzero}
   ]]>
  </style>
 </defs>
 <g id="__x0023_Layer_x0020_1Â_x00a0_Image">
  <metadata id="CorelCorpID_0Corel-Layer"/>
  <path class="fil0" d="M3531 1981l232 0 0 375 -401 0 0 -375 -281 0 0 -73 589 -728 -589 -726 -36 -44 36 0 0 -366 682 0 0 366 -209 0 209 257 162 199 162 -200 207 -256 -207 0 0 -366 913 0 0 366 -196 0 -625 770 650 801 171 0c0,122 0,253 0,375l-913 0 0 -375 233 0 -233 -287 -162 -200 0 0 -162 200 -232 287z"/>
  <polygon class="fil1" points="3362,1981 3362,2356 3081,2356 2845,2356 2845,2076 2845,1981 2921,1981 3021,1981 3081,1908 3081,1981 "/>
  <polygon class="fil1" points="3045,410 2845,410 2845,44 3081,44 3081,410 "/>
  <path class="fil2" d="M2712 410l-244 0 0 -366 244 0 133 0 0 366 200 0 36 44 0 1006 0 3 0 445 -60 73 -100 0 -76 0 0 95 0 280 -133 0 0 -162c-142,102 -316,162 -507,162 -261,0 -496,-112 -660,-291 67,-75 121,-161 159,-256l-324 0c-14,-34 -26,-68 -36,-103 -10,-33 -17,-66 -23,-101l62 0 316 0c10,35 23,68 40,100 88,165 262,278 462,278 288,0 509,-233 511,-520l0 -3c0,-289 -222,-523 -511,-523 -200,0 -374,113 -462,279 -37,-137 -104,-260 -194,-361 164,-179 399,-291 660,-291 191,0 365,60 507,162l0 -316z"/>
  <path class="fil3" d="M1771 1460c0,50 -4,98 -11,145l-61 0c-14,-46 -21,-95 -21,-145 0,-53 8,-105 23,-153 10,-32 23,-63 38,-91 8,29 15,60 20,91 8,49 12,101 12,153z"/>
  <path class="fil4" d="M1380 1809l324 0c-38,95 -92,181 -159,256 -69,-75 -125,-161 -165,-256z"/>
  <path class="fil4" d="M1701 1307c-15,48 -23,100 -23,153 0,50 7,99 21,145l-316 0 -62 0c-7,-47 -11,-95 -11,-145 0,-52 4,-104 13,-153l58 0c-10,-33 -22,-64 -37,-93 38,-136 108,-258 201,-359 90,101 157,224 194,361 -15,28 -28,59 -38,91z"/>
  <path class="fil3" d="M1545 2065c-158,179 -388,291 -649,291 -445,0 -815,-325 -884,-751 -8,-47 -12,-95 -12,-145 0,-52 5,-104 13,-153 73,-422 440,-743 883,-743 261,0 491,112 649,291 -93,101 -163,223 -201,359 -85,-165 -253,-277 -452,-277 -236,0 -435,156 -500,370l931 0c-9,49 -13,101 -13,153 0,50 4,98 11,145l-932 0c63,218 264,378 503,378 155,0 290,-67 383,-174l105 0c40,95 96,181 165,256z"/>
  <path class="fil2" d="M1381 1307l-58 0c5,-32 12,-63 21,-93 15,29 27,60 37,93z"/>
 </g>
</svg>
