<?xml version="1.0" encoding="UTF-8"?>
<!DOCTYPE svg PUBLIC "-//W3C//DTD SVG 1.1//EN" "http://www.w3.org/Graphics/SVG/1.1/DTD/svg11.dtd">
<!-- Creator: CorelDRAW X7 -->
<svg xmlns="http://www.w3.org/2000/svg" xml:space="preserve" width="160mm" height="65mm" version="1.1" style="shape-rendering:geometricPrecision; text-rendering:geometricPrecision; image-rendering:optimizeQuality; fill-rule:evenodd; clip-rule:evenodd"
viewBox="0 0 16000 6500"
 xmlns:xlink="http://www.w3.org/1999/xlink">
 <defs>
  <style type="text/css">
   <![CDATA[
    .fil1 {fill:#FEFEFE}
    .fil0 {fill:#FEFEFE;fill-rule:nonzero}
   ]]>
  </style>
 </defs>
 <g id="Layer_x0020_1">
  <metadata id="CorelCorpID_0Corel-Layer"/>
  <g id="_973811008">
   <g>
    <polygon class="fil0" points="11276,3307 11276,3080 11479,3080 11479,2195 11276,2195 11276,1969 12033,1969 12033,2195 11828,2195 11828,3080 12033,3080 12033,3307 "/>
    <path class="fil0" d="M15735 2075l13 0c16,0 26,-1 31,-1 5,-1 10,-3 14,-7 3,-4 5,-9 5,-14 0,-6 -2,-10 -6,-14 -4,-4 -8,-6 -14,-7 -5,0 -15,-1 -30,-1l-13 0 0 44zm107 91l-40 0 -13 -26c-9,-16 -16,-27 -22,-32 -7,-5 -15,-8 -26,-8l-6 0 0 66 -32 0 0 -160 57 0c19,0 33,1 41,3 8,1 16,6 22,14 6,8 9,17 9,28 0,12 -4,22 -11,30 -8,8 -18,13 -32,15 7,3 12,6 16,10 4,4 10,13 18,28l19 32zm47 -81c0,-33 -12,-62 -36,-85 -24,-24 -52,-36 -85,-36 -34,0 -62,12 -86,36 -24,24 -35,52 -35,85 0,34 11,62 35,86 24,24 52,35 86,35 33,0 61,-11 85,-35 24,-24 36,-52 36,-86zm29 0c0,42 -15,77 -44,107 -30,29 -65,44 -106,44 -42,0 -78,-15 -107,-44 -29,-30 -44,-65 -44,-107 0,-41 15,-77 44,-106 29,-30 65,-44 107,-44 41,0 76,14 106,44 29,29 44,65 44,106z"/>
    <polygon class="fil0" points="12219,3307 12219,3080 12392,3080 12392,2195 12219,2195 12219,1969 12890,1969 13184,2752 13478,1969 14164,1969 14164,2195 13990,2195 13990,3080 14164,3080 14164,3307 13490,3307 13490,3080 13651,3080 13651,2195 13620,2195 13205,3307 13061,3307 12642,2195 12610,2195 12610,3080 12785,3080 12785,3307 "/>
    <path class="fil0" d="M10724 1990l221 0 0 460 -221 0c-63,-165 -171,-248 -326,-248 -128,0 -224,44 -290,131 -65,87 -98,192 -98,313 0,128 35,231 104,309 69,79 158,118 265,118 87,0 164,-29 230,-89 66,-59 110,-142 134,-248l257 123c-98,303 -313,455 -646,455 -235,0 -412,-63 -532,-190 -119,-127 -179,-287 -179,-481 0,-138 31,-258 93,-362 62,-103 145,-181 250,-234 105,-52 221,-78 346,-78 156,0 286,40 392,122l0 -101z"/>
    <path class="fil0" d="M15121 2662l-111 -401 -120 401 231 0zm603 425l0 226 -656 0 0 -226 171 0 -63 -229 -346 0 -71 229 179 0 0 226 -592 0 0 -226 165 0 260 -883 -178 0 0 -226 872 0 0 226 -180 0 280 883 159 0z"/>
    <path class="fil0" d="M9942 3790c-33,61 -89,89 -131,89 -60,0 -91,-52 -72,-119 20,-67 78,-116 139,-116 43,0 74,24 81,63l39 0 29 -99 -40 0 -8 28c-20,-21 -53,-33 -91,-33 -93,0 -172,63 -200,159 -27,93 17,158 108,158 74,0 142,-41 180,-108l-34 -22z"/>
    <polygon id="1" class="fil0" points="10080,3877 10040,3877 10029,3915 10284,3915 10311,3821 10273,3821 10257,3877 10126,3877 10156,3776 10270,3776 10281,3738 10167,3738 10194,3646 10324,3646 10309,3700 10347,3700 10373,3608 10119,3608 10108,3646 10147,3646 "/>
    <path id="2" class="fil0" d="M10407 3877l-42 0 -11 38 128 0 11 -38 -40 0 31 -106 44 0 27 144 67 0 11 -38 -37 0 -22 -112c44,-10 74,-38 86,-77 13,-46 -5,-80 -75,-80l-142 0 -11 38 42 0 -67 231zm88 -144l25 -87 56 0c30,0 45,15 37,42 -6,20 -22,45 -66,45l-52 0z"/>
    <polygon id="3" class="fil0" points="11013,3608 10764,3608 10730,3725 10768,3725 10791,3646 10854,3646 10787,3877 10747,3877 10736,3915 10862,3915 10873,3877 10833,3877 10900,3646 10964,3646 10941,3725 10979,3725 "/>
    <polygon id="4" class="fil0" points="11036,3877 11003,3877 10991,3915 11104,3915 11116,3877 11082,3877 11149,3646 11183,3646 11194,3608 11081,3608 11070,3646 11103,3646 "/>
    <polygon id="5" class="fil0" points="11226,3877 11187,3877 11176,3915 11301,3915 11312,3877 11272,3877 11301,3776 11401,3776 11412,3737 11313,3737 11339,3646 11455,3646 11439,3700 11477,3700 11504,3608 11265,3608 11254,3646 11293,3646 "/>
    <polygon id="6" class="fil0" points="11525,3877 11491,3877 11480,3915 11593,3915 11604,3877 11571,3877 11638,3646 11671,3646 11683,3608 11570,3608 11558,3646 11592,3646 "/>
    <polygon id="7" class="fil0" points="11720,3877 11680,3877 11669,3915 11923,3915 11951,3821 11913,3821 11897,3877 11766,3877 11795,3776 11909,3776 11920,3738 11806,3738 11833,3646 11964,3646 11948,3700 11986,3700 12013,3608 11758,3608 11747,3646 11787,3646 "/>
    <path id="8" class="fil0" d="M12113 3646l-67 231 -42 0 -11 38 140 0c111,0 178,-57 207,-156 21,-74 6,-151 -113,-151l-144 0 -11 38 41 0zm46 0l56 0c78,0 96,48 77,114 -19,65 -60,117 -146,117l-54 0 67 -231z"/>
    <polygon class="fil0" points="12607,3877 12573,3877 12562,3915 12675,3915 12686,3877 12653,3877 12720,3646 12754,3646 12765,3608 12652,3608 12640,3646 12674,3646 "/>
    <polygon id="1" class="fil0" points="12795,3877 12751,3877 12740,3915 12866,3915 12877,3877 12833,3877 12898,3656 12898,3656 12967,3918 13016,3918 13095,3646 13140,3646 13152,3608 13026,3608 13014,3646 13057,3646 12999,3847 12998,3847 12935,3608 12830,3608 12818,3646 12862,3646 "/>
    <polygon id="2" class="fil0" points="13251,3918 13294,3918 13475,3646 13512,3646 13523,3608 13405,3608 13394,3646 13430,3646 13293,3853 13275,3646 13311,3646 13322,3608 13201,3608 13190,3646 13228,3646 "/>
    <polygon id="3" class="fil0" points="13545,3877 13505,3877 13494,3915 13748,3915 13776,3821 13738,3821 13721,3877 13591,3877 13620,3776 13734,3776 13745,3738 13631,3738 13658,3646 13789,3646 13773,3700 13811,3700 13838,3608 13583,3608 13572,3646 13612,3646 "/>
    <path id="4" class="fil0" d="M13828 3915l38 0 7 -25c16,20 39,30 67,30 55,0 108,-38 123,-90 8,-25 5,-50 -7,-66 -25,-36 -100,-32 -117,-56 -4,-6 -6,-16 -3,-26 7,-24 32,-40 63,-40 29,0 46,12 55,36l-6 21 38 0 27 -92 -38 0 -6 20c-16,-16 -37,-24 -62,-24 -46,0 -97,27 -114,84 -7,26 -4,44 4,56 34,48 137,27 119,87 -8,30 -38,52 -69,52 -30,0 -47,-18 -57,-51l8 -27 -38 0 -32 111z"/>
    <polygon id="5" class="fil0" points="14444,3608 14196,3608 14162,3725 14200,3725 14222,3646 14286,3646 14218,3877 14178,3877 14167,3915 14294,3915 14305,3877 14265,3877 14332,3646 14395,3646 14372,3725 14410,3725 "/>
    <polygon id="6" class="fil0" points="14468,3877 14431,3877 14420,3915 14528,3915 14539,3877 14506,3877 14574,3646 14574,3646 14599,3918 14608,3918 14792,3646 14793,3646 14725,3877 14692,3877 14681,3915 14794,3915 14805,3877 14768,3877 14835,3646 14872,3646 14883,3608 14776,3608 14634,3818 14615,3608 14509,3608 14498,3646 14536,3646 "/>
    <polygon id="7" class="fil0" points="14917,3877 14877,3877 14866,3915 15120,3915 15148,3821 15110,3821 15094,3877 14963,3877 14992,3776 15106,3776 15117,3738 15004,3738 15030,3646 15161,3646 15145,3700 15183,3700 15210,3608 14955,3608 14944,3646 14984,3646 "/>
    <polygon id="8" class="fil0" points="15241,3877 15197,3877 15186,3915 15312,3915 15324,3877 15279,3877 15344,3656 15345,3656 15414,3918 15462,3918 15542,3646 15587,3646 15598,3608 15472,3608 15461,3646 15504,3646 15445,3847 15444,3847 15381,3608 15276,3608 15265,3646 15309,3646 "/>
    <polygon id="9" class="fil0" points="15902,3608 15653,3608 15619,3725 15657,3725 15680,3646 15743,3646 15676,3877 15636,3877 15624,3915 15751,3915 15762,3877 15722,3877 15789,3646 15852,3646 15830,3725 15868,3725 "/>
    <polygon class="fil0" points="9691,4406 9654,4406 9643,4444 9751,4444 9762,4406 9729,4406 9797,4176 9797,4176 9822,4448 9831,4448 10015,4175 10016,4175 9948,4406 9915,4406 9904,4444 10017,4444 10028,4406 9991,4406 10058,4176 10095,4176 10106,4137 9999,4137 9857,4348 9838,4137 9732,4137 9721,4176 9759,4176 "/>
    <path id="1" class="fil0" d="M10312 4336l2 70 -38 0 -11 38 120 0 11 -38 -34 0 -14 -234 36 0 10 -35 -157 0 -10 35 36 0 -152 234 -37 0 -12 38 122 0 11 -38 -38 0 45 -70 110 0zm-1 -35l-88 0 80 -129 4 0 4 129z"/>
    <polygon id="2" class="fil0" points="10477,4406 10433,4406 10422,4444 10548,4444 10559,4406 10515,4406 10579,4185 10580,4185 10649,4448 10698,4448 10777,4176 10822,4176 10834,4137 10707,4137 10696,4176 10739,4176 10681,4376 10680,4376 10616,4137 10512,4137 10500,4176 10544,4176 "/>
    <path id="3" class="fil0" d="M11023 4336l2 70 -38 0 -11 38 120 0 11 -38 -34 0 -14 -234 36 0 10 -35 -157 0 -10 35 36 0 -152 234 -37 0 -12 38 122 0 11 -38 -38 0 45 -70 110 0zm-1 -35l-88 0 80 -129 4 0 4 129z"/>
    <path id="4" class="fil0" d="M11389 4296l-11 39 56 0c-20,43 -70,74 -121,74 -66,0 -99,-50 -79,-119 21,-69 79,-117 143,-117 45,0 78,26 85,65l39 0 30 -101 -40 0 -10 34c-24,-27 -52,-39 -96,-39 -112,0 -180,86 -201,158 -18,60 -14,160 116,160 81,0 171,-42 201,-154l-112 0z"/>
    <polygon id="5" class="fil0" points="11582,4406 11543,4406 11531,4444 11786,4444 11814,4350 11776,4350 11759,4406 11629,4406 11658,4306 11772,4306 11783,4267 11669,4267 11696,4176 11826,4176 11811,4230 11849,4230 11876,4137 11621,4137 11610,4176 11650,4176 "/>
    <polygon id="6" class="fil0" points="11899,4406 11862,4406 11851,4444 11959,4444 11970,4406 11937,4406 12005,4176 12006,4176 12030,4448 12039,4448 12223,4175 12224,4175 12156,4406 12123,4406 12112,4444 12225,4444 12236,4406 12199,4406 12266,4176 12303,4176 12314,4137 12207,4137 12065,4348 12046,4137 11940,4137 11929,4176 11967,4176 "/>
    <polygon id="7" class="fil0" points="12338,4406 12298,4406 12287,4444 12541,4444 12569,4350 12531,4350 12515,4406 12384,4406 12413,4306 12527,4306 12538,4267 12424,4267 12451,4176 12582,4176 12566,4230 12604,4230 12631,4137 12376,4137 12365,4176 12405,4176 "/>
    <polygon id="8" class="fil0" points="12652,4406 12608,4406 12597,4444 12723,4444 12734,4406 12690,4406 12754,4185 12755,4185 12824,4448 12873,4448 12952,4176 12997,4176 13009,4137 12882,4137 12871,4176 12914,4176 12856,4376 12855,4376 12792,4137 12687,4137 12675,4176 12719,4176 "/>
    <polygon id="9" class="fil0" points="13302,4137 13053,4137 13019,4254 13057,4254 13080,4176 13144,4176 13076,4406 13036,4406 13025,4444 13151,4444 13163,4406 13122,4406 13190,4176 13253,4176 13230,4254 13268,4254 "/>
    <path class="fil0" d="M13710 4336l2 70 -38 0 -11 38 120 0 11 -38 -34 0 -14 -234 36 0 10 -35 -157 0 -10 35 36 0 -152 234 -37 0 -12 38 122 0 11 -38 -38 0 45 -70 110 0zm-1 -35l-88 0 80 -129 4 0 4 129z"/>
    <polygon id="1" class="fil0" points="13882,4406 13838,4406 13827,4444 13953,4444 13964,4406 13920,4406 13984,4185 13985,4185 14054,4448 14103,4448 14182,4176 14227,4176 14238,4137 14112,4137 14101,4176 14144,4176 14085,4376 14085,4376 14021,4137 13916,4137 13905,4176 13949,4176 "/>
    <path id="2" class="fil0" d="M14434 4336l3 70 -38 0 -11 38 120 0 11 -38 -34 0 -15 -234 37 0 10 -35 -157 0 -10 35 36 0 -153 234 -37 0 -11 38 121 0 11 -38 -37 0 44 -70 110 0zm-1 -35l-87 0 80 -129 4 0 3 129z"/>
    <polygon id="3" class="fil0" points="14608,4406 14567,4406 14556,4444 14781,4444 14823,4302 14780,4302 14750,4406 14654,4406 14721,4176 14760,4176 14771,4137 14645,4137 14634,4176 14675,4176 "/>
    <polygon id="4" class="fil0" points="14932,4406 14891,4406 14880,4444 15009,4444 15020,4406 14978,4406 15008,4305 15131,4176 15172,4176 15183,4137 15060,4137 15049,4176 15087,4176 14998,4270 14958,4176 14997,4176 15008,4137 14882,4137 14870,4176 14908,4176 14962,4305 "/>
    <path id="5" class="fil0" d="M15149 4444l38 0 8 -25c16,20 38,30 66,30 56,0 109,-38 124,-90 7,-25 5,-50 -7,-66 -25,-36 -100,-32 -117,-56 -5,-6 -6,-16 -3,-26 7,-23 32,-39 63,-39 28,0 45,11 55,35l-6 22 38 0 27 -93 -38 0 -6 20c-16,-16 -38,-24 -62,-24 -46,0 -97,27 -114,84 -8,26 -4,44 4,56 34,48 136,27 119,87 -9,30 -38,52 -70,52 -29,0 -46,-18 -56,-51l8 -27 -38 0 -33 111z"/>
    <polygon id="6" class="fil0" points="15763,4137 15514,4137 15480,4254 15518,4254 15541,4176 15604,4176 15537,4406 15496,4406 15485,4444 15612,4444 15623,4406 15583,4406 15650,4176 15713,4176 15691,4254 15729,4254 "/>
    <path class="fil0" d="M15851 4206l8 0c8,0 13,-1 16,-1 3,0 5,-2 7,-4 2,-2 3,-4 3,-7 0,-3 -1,-6 -3,-8 -2,-2 -5,-3 -7,-3 -3,-1 -9,-1 -17,-1l-7 0 0 24zm58 49l-22 0 -7 -14c-4,-9 -8,-15 -12,-18 -3,-2 -8,-4 -13,-4l-4 0 0 36 -17 0 0 -87 31 0c10,0 17,1 22,2 4,1 8,3 12,7 3,5 5,10 5,16 0,6 -2,11 -7,16 -4,4 -9,7 -17,8 4,1 7,3 9,5 2,3 5,8 10,15l10 18zm25 -44c0,-18 -6,-33 -19,-46 -13,-13 -28,-19 -46,-19 -18,0 -34,6 -46,19 -13,13 -19,28 -19,46 0,18 6,33 19,46 13,13 28,19 46,19 18,0 33,-6 46,-19 13,-12 19,-28 19,-46zm16 0c0,23 -8,42 -24,58 -16,15 -35,23 -57,23 -23,0 -42,-8 -58,-23 -15,-16 -23,-35 -23,-58 0,-22 8,-41 23,-57 16,-16 35,-24 58,-24 22,0 41,8 57,24 16,16 24,35 24,57z"/>
   </g>
   <g>
    <g id="_741513360">
     <g>
      <rect class="fil1" x="1276" y="1239" width="2809.09" height="94.1383"/>
      <rect class="fil1" x="1276" y="1435" width="2809.09" height="94.1383"/>
      <rect class="fil1" x="1276" y="2444" width="2809.09" height="94.1383"/>
      <g>
       <rect class="fil1" transform="matrix(9.43732E-014 0.900904 -4.07149 2.72626E-014 1474.83 1631.41)" width="788.25" height="23.15"/>
       <rect class="fil1" transform="matrix(9.43732E-014 0.900904 -4.07149 2.72626E-014 1753.27 1631.41)" width="788.25" height="23.15"/>
       <rect class="fil1" transform="matrix(9.43732E-014 0.900904 -4.07149 2.72626E-014 2031.7 1631.41)" width="788.25" height="23.15"/>
       <rect class="fil1" transform="matrix(9.43732E-014 0.900904 -4.07149 2.72626E-014 2310.14 1631.41)" width="788.25" height="23.15"/>
       <rect class="fil1" transform="matrix(9.43732E-014 0.900904 -4.07149 2.72626E-014 2588.57 1631.41)" width="788.25" height="23.15"/>
       <rect class="fil1" transform="matrix(9.43732E-014 0.900904 -4.07149 2.72626E-014 2867.01 1631.41)" width="788.25" height="23.15"/>
       <rect class="fil1" transform="matrix(9.43732E-014 0.900904 -4.07149 2.72626E-014 3145.45 1631.41)" width="788.25" height="23.15"/>
       <rect class="fil1" transform="matrix(9.43732E-014 0.900904 -4.07149 2.72626E-014 3423.89 1631.41)" width="788.25" height="23.15"/>
       <rect class="fil1" transform="matrix(9.43732E-014 0.900904 -4.07149 2.72626E-014 3702.33 1631.41)" width="788.25" height="23.15"/>
       <rect class="fil1" transform="matrix(9.43732E-014 0.900904 -4.07149 2.72626E-014 3981.01 1631.41)" width="788.25" height="23.15"/>
      </g>
      <rect class="fil1" x="1609" y="1050" width="2142.59" height="94.1383"/>
      <path class="fil1" d="M2681 475c423,0 804,180 1071,468l-2142 0c267,-288 648,-468 1071,-468z"/>
     </g>
     <polygon class="fil0" points="1903,3932 1903,3330 1731,3932 1587,3932 1415,3330 1415,3932 1276,3932 1276,3206 1520,3206 1670,3749 1808,3206 2053,3206 2053,3932 "/>
     <polygon id="_1" class="fil0" points="2186,3932 2186,3206 2351,3206 2351,3932 "/>
     <polygon id="_2" class="fil0" points="2782,3333 2782,3932 2617,3932 2617,3333 2421,3333 2421,3206 2978,3206 2978,3333 "/>
     <path class="fil0" d="M3584 3729c0,38 -8,71 -24,98 -17,27 -37,50 -63,66 -25,18 -54,30 -87,38 -32,7 -66,11 -98,11 -35,0 -66,-4 -96,-11 -30,-8 -56,-19 -79,-35 -24,-17 -43,-38 -57,-64 -14,-25 -23,-57 -26,-95l98 0c1,24 6,43 15,60 9,16 22,30 37,41 14,10 31,18 50,24 19,4 39,7 61,7 20,0 40,-3 60,-7 21,-5 39,-12 56,-23 17,-11 30,-23 41,-39 10,-17 16,-36 16,-60 0,-18 -5,-35 -13,-49 -8,-13 -18,-25 -31,-35 -14,-10 -29,-19 -46,-26 -17,-6 -36,-13 -54,-19l-62 -19c-26,-8 -52,-17 -77,-27 -25,-10 -47,-22 -66,-36 -20,-15 -35,-33 -47,-54 -11,-22 -17,-49 -17,-80 0,-36 7,-67 22,-92 14,-25 34,-45 58,-62 23,-16 50,-27 81,-35 30,-7 61,-11 93,-11 30,0 59,3 88,9 28,6 53,17 75,31 23,14 41,33 54,57 14,23 21,52 21,87l-95 0c-2,-20 -7,-39 -15,-53 -8,-14 -18,-26 -31,-35 -14,-9 -28,-15 -45,-19 -17,-4 -34,-5 -53,-5 -19,0 -38,2 -57,6 -19,4 -36,12 -51,21 -15,10 -28,22 -37,37 -10,16 -14,34 -14,56 0,16 4,30 12,42 8,13 17,24 29,33 12,9 26,16 40,23 15,6 30,11 43,17l82 27c27,8 52,17 77,27 25,10 47,22 66,37 20,15 36,33 48,55 12,22 18,49 18,81z"/>
     <polygon id="_1_0" class="fil0" points="3703,3932 3703,3206 3791,3206 3791,3932 "/>
     <path id="_2_1" class="fil0" d="M4400 3676c0,37 -6,73 -16,105 -12,32 -28,61 -49,85 -21,24 -48,43 -79,57 -30,13 -65,20 -105,20 -40,0 -76,-7 -107,-20 -31,-13 -57,-32 -78,-55 -21,-24 -37,-53 -48,-85 -11,-34 -17,-69 -17,-107 0,-38 6,-73 17,-105 12,-32 28,-60 49,-83 22,-23 48,-41 79,-54 31,-14 67,-20 106,-20 40,0 76,6 107,19 31,13 56,31 77,54 21,23 37,51 48,82 11,33 16,68 16,107zm-92 0c0,-25 -3,-49 -9,-73 -6,-25 -15,-46 -27,-64 -13,-19 -28,-34 -48,-46 -20,-11 -44,-17 -72,-17 -28,0 -52,6 -73,17 -19,12 -36,27 -48,46 -13,18 -22,39 -27,64 -6,24 -9,48 -9,73 0,24 3,49 9,73 5,25 14,47 27,67 12,20 28,36 48,49 20,12 44,18 73,18 28,0 52,-6 71,-18 20,-13 36,-30 48,-49 13,-21 22,-43 28,-67 6,-25 9,-49 9,-73z"/>
     <path id="_3" class="fil0" d="M4831 3932c-1,-11 -4,-22 -5,-36 -2,-13 -3,-25 -4,-35 -21,31 -46,52 -74,64 -28,12 -61,18 -98,18 -23,0 -46,-3 -67,-9 -21,-6 -40,-15 -56,-27 -17,-13 -30,-29 -39,-47 -10,-19 -15,-41 -15,-68 0,-37 9,-68 28,-90 19,-23 42,-40 71,-51 28,-12 59,-20 93,-23 35,-4 67,-5 98,-5 9,0 18,0 27,1 8,0 16,0 23,1l0 -30c0,-39 -8,-69 -24,-90 -17,-22 -46,-33 -87,-33 -31,0 -56,7 -74,20 -18,13 -28,36 -32,70l-86 0c2,-28 8,-51 18,-69 12,-19 26,-34 43,-46 18,-11 37,-19 60,-24 22,-6 45,-8 69,-8 65,0 113,14 145,41 31,28 48,74 48,141l0 186c0,34 1,64 5,91 4,28 7,46 11,58l-78 0zm-18 -254c-11,-1 -19,-2 -25,-2 -6,0 -13,0 -20,0 -19,0 -41,1 -65,3 -24,2 -47,7 -68,15 -21,7 -39,19 -52,34 -15,14 -22,34 -22,61 0,15 3,29 9,41 6,12 15,22 25,30 10,8 22,14 36,18 13,4 27,6 42,6 32,0 57,-6 75,-18 19,-11 33,-27 42,-47 10,-19 16,-41 19,-66 3,-25 4,-50 4,-75z"/>
     <path id="_4" class="fil0" d="M5389 3932l0 -281c0,-22 -1,-43 -3,-63 -2,-19 -7,-37 -15,-52 -8,-15 -20,-27 -35,-36 -16,-9 -38,-13 -64,-13 -28,0 -51,5 -69,16 -18,11 -32,26 -42,45 -11,18 -18,38 -23,61 -4,24 -6,47 -6,70l0 253 -89 0 0 -376c0,-11 0,-23 0,-35 0,-13 0,-25 -1,-36 0,-12 -1,-23 -1,-33 0,-11 -1,-20 -1,-27l88 0 3 81c21,-29 44,-51 71,-65 26,-15 58,-22 94,-22 67,0 113,17 141,53 27,34 40,82 40,145l0 315 -88 0z"/>
     <polygon class="fil0" points="1291,4943 1291,4217 1807,4217 1807,4342 1474,4342 1474,4515 1790,4515 1790,4636 1474,4636 1474,4819 1818,4819 1818,4943 "/>
     <polygon id="_1_2" class="fil0" points="2218,4943 2115,4761 2011,4943 1822,4943 2005,4680 1837,4436 2039,4436 2125,4600 2214,4436 2403,4436 2239,4680 2425,4943 "/>
     <path id="_2_3" class="fil0" d="M2582 4719c0,19 2,38 6,55 4,18 11,34 19,46 9,13 20,24 34,31 14,7 30,11 50,11 58,0 91,-29 98,-86l167 0c-4,24 -11,45 -21,64 -11,19 -24,35 -39,50 -26,24 -56,40 -91,49 -35,10 -74,15 -116,15 -50,0 -94,-6 -129,-19 -36,-14 -66,-33 -89,-60 -20,-22 -35,-47 -45,-78 -9,-30 -15,-63 -15,-99 0,-86 24,-153 71,-202 48,-48 118,-73 210,-73 58,0 108,11 151,34 42,21 74,57 95,105 10,23 16,47 19,72 2,24 3,52 3,85l-378 0zm210 -87c0,-38 -9,-68 -24,-88 -17,-21 -42,-32 -74,-32 -34,0 -61,12 -80,33 -19,22 -29,51 -29,87l207 0z"/>
     <path id="_3_4" class="fil0" d="M3539 4752c-2,39 -9,72 -24,98 -13,27 -31,48 -55,63 -23,16 -50,26 -81,32 -31,7 -65,10 -102,10 -46,0 -87,-5 -120,-16 -33,-12 -62,-28 -85,-50 -24,-23 -42,-51 -55,-84 -13,-33 -20,-71 -20,-112 0,-42 7,-80 21,-114 12,-34 32,-63 58,-86 24,-24 53,-41 88,-53 34,-12 74,-18 120,-18 73,0 132,16 177,46 45,30 70,80 76,151l-172 0c-1,-32 -8,-57 -21,-75 -13,-18 -34,-27 -63,-27 -21,0 -39,4 -53,15 -13,10 -24,22 -31,39 -8,16 -14,34 -16,54 -3,21 -4,42 -4,62 0,21 1,41 4,62 2,20 8,39 15,56 8,15 17,29 31,39 13,10 30,15 51,15 33,0 54,-9 67,-29 12,-19 19,-45 20,-78l174 0z"/>
     <path id="_4_5" class="fil0" d="M3954 4943c0,-2 0,-7 0,-14 -1,-8 -2,-17 -2,-26 -1,-9 -1,-16 -1,-24 0,-7 0,-12 0,-13 -24,30 -49,51 -73,65 -25,14 -58,20 -96,20 -69,0 -119,-19 -151,-59 -12,-16 -22,-35 -28,-57 -6,-21 -9,-47 -9,-77l0 -322 176 0 0 275c0,18 1,36 1,52 2,17 6,31 11,43 5,12 14,21 25,29 11,7 27,11 47,11 21,0 37,-5 50,-13 13,-9 23,-21 30,-35 6,-13 11,-27 12,-42 2,-15 3,-32 3,-52l0 -268 176 0 0 326c0,29 0,58 0,89 1,32 2,62 3,92l-174 0z"/>
     <path id="_5" class="fil0" d="M4430 4545l0 211c0,30 4,51 13,63 9,12 29,18 59,18 7,0 15,-1 24,-1 8,-1 17,-2 26,-3l0 109c-21,3 -40,5 -59,6 -19,3 -37,3 -55,3 -31,0 -57,-2 -80,-6 -23,-5 -41,-12 -55,-24 -14,-12 -25,-27 -32,-46 -6,-19 -10,-45 -10,-76l0 -254 -95 0 0 -109 95 0 0 -90 169 -66 0 156 122 0 0 109 -122 0z"/>
     <path id="_6" class="fil0" d="M4602 4345l0 -128 176 0 0 128 -176 0zm0 598l0 -507 176 0 0 507 -176 0z"/>
     <polygon id="_7" class="fil0" points="5211,4943 5016,4943 4808,4436 4997,4436 5119,4801 5245,4436 5418,4436 "/>
     <path id="_8" class="fil0" d="M5572 4719c0,19 2,38 6,55 4,18 10,34 19,46 9,13 20,24 34,31 13,7 30,11 50,11 58,0 90,-29 97,-86l168 0c-4,24 -11,45 -21,64 -11,19 -24,35 -40,50 -25,24 -55,40 -90,49 -35,10 -74,15 -116,15 -50,0 -94,-6 -129,-19 -37,-14 -66,-33 -89,-60 -20,-22 -35,-47 -45,-78 -10,-30 -15,-63 -15,-99 0,-86 23,-153 71,-202 47,-48 117,-73 210,-73 58,0 108,11 151,34 42,21 73,57 95,105 9,23 15,47 18,72 3,24 4,52 4,85l-378 0zm209 -87c0,-38 -8,-68 -24,-88 -16,-21 -41,-32 -73,-32 -34,0 -61,12 -80,33 -19,22 -29,51 -29,87l206 0z"/>
     <polygon class="fil0" points="1291,5980 1291,5255 1807,5255 1807,5379 1474,5379 1474,5552 1790,5552 1790,5673 1474,5673 1474,5856 1818,5856 1818,5980 "/>
     <path id="_1_6" class="fil0" d="M2238 5980c0,-1 0,-4 -1,-10 0,-6 0,-14 -1,-22 -1,-7 -1,-14 -2,-21 0,-6 0,-11 0,-14 -23,27 -46,48 -70,60 -23,12 -55,18 -92,18 -40,0 -73,-6 -102,-20 -29,-13 -53,-32 -71,-55 -19,-23 -33,-51 -42,-83 -9,-31 -14,-66 -14,-104 0,-34 5,-68 14,-101 8,-32 22,-61 40,-85 18,-25 41,-45 69,-60 28,-14 62,-22 101,-22 36,0 68,6 94,18 27,12 51,33 74,61l0 -285 176 0 0 585c0,25 0,49 0,72 0,23 2,46 3,68l-176 0zm1 -251c0,-23 -2,-44 -5,-64 -4,-20 -10,-37 -19,-53 -9,-15 -21,-28 -36,-37 -14,-9 -32,-14 -53,-14 -21,0 -38,6 -51,15 -14,9 -24,22 -32,37 -7,15 -14,32 -17,52 -3,20 -4,40 -4,61 0,21 1,42 4,62 3,20 10,38 18,53 8,15 19,28 34,37 13,9 31,14 54,14 19,0 37,-5 50,-14 14,-10 25,-23 34,-38 8,-16 14,-33 18,-53 3,-19 5,-39 5,-58z"/>
     <path id="_2_7" class="fil0" d="M2855 5980c0,-1 0,-7 -1,-14 -1,-8 -1,-16 -1,-25 -1,-9 -1,-17 -2,-25 0,-7 0,-12 0,-13 -23,30 -48,52 -73,65 -25,14 -57,20 -96,20 -69,0 -119,-19 -150,-59 -13,-16 -22,-35 -28,-57 -6,-21 -9,-47 -9,-77l0 -322 175 0 0 275c0,18 1,36 3,52 0,17 4,31 9,43 6,12 14,22 25,29 12,7 27,11 48,11 20,0 37,-5 49,-13 13,-9 24,-20 31,-35 6,-13 10,-27 12,-42 2,-15 3,-32 3,-52l0 -268 176 0 0 326c0,29 0,58 0,89 1,32 1,62 3,92l-174 0z"/>
     <path id="_3_8" class="fil0" d="M3622 5789c-2,39 -9,72 -23,98 -14,27 -32,48 -56,63 -22,16 -49,26 -81,33 -31,6 -65,9 -102,9 -46,0 -86,-5 -120,-16 -33,-11 -62,-28 -85,-50 -24,-23 -42,-51 -55,-84 -13,-33 -20,-71 -20,-112 0,-42 7,-80 20,-114 14,-34 34,-63 58,-86 24,-23 54,-41 89,-53 34,-12 74,-18 121,-18 72,0 132,16 176,46 45,31 70,80 76,151l-172 0c0,-32 -8,-57 -21,-75 -13,-18 -34,-27 -62,-27 -22,0 -39,4 -53,15 -14,10 -25,23 -32,39 -8,16 -13,34 -16,54 -2,21 -4,42 -4,62 0,21 2,41 4,62 3,20 7,39 15,56 7,15 18,29 31,39 13,10 30,15 52,15 31,0 54,-9 66,-29 13,-19 20,-45 20,-78l174 0z"/>
     <path id="_4_9" class="fil0" d="M3997 5980c-4,-12 -6,-24 -8,-35 -2,-12 -4,-25 -4,-40 -21,32 -44,54 -71,67 -27,12 -61,19 -101,19 -27,0 -51,-4 -73,-10 -23,-7 -42,-16 -58,-29 -16,-13 -29,-28 -38,-49 -9,-19 -13,-42 -13,-68 0,-37 9,-67 27,-89 18,-23 42,-40 70,-52 30,-12 63,-20 99,-24 36,-4 73,-6 110,-6l48 0 0 -32c0,-11 -2,-22 -4,-33 -2,-10 -7,-20 -13,-27 -6,-8 -14,-15 -23,-20 -9,-5 -21,-7 -35,-7 -27,0 -46,7 -58,19 -11,14 -17,32 -17,55l-172 0c1,-32 9,-58 25,-79 16,-21 35,-37 59,-49 24,-12 50,-20 78,-25 29,-3 56,-6 83,-6 46,0 85,4 117,11 33,8 60,22 81,44 15,15 27,34 35,57 8,23 12,52 12,87l0 160c0,29 0,56 1,81 1,26 3,52 7,80l-164 0zm-12 -242c-6,0 -15,0 -25,0 -10,0 -18,0 -22,0 -15,0 -31,0 -48,3 -16,3 -31,8 -45,15 -13,6 -25,15 -34,27 -9,11 -13,25 -13,43 0,21 7,38 22,52 15,12 34,19 55,19 22,0 40,-4 55,-13 14,-9 25,-20 33,-34 8,-14 14,-30 17,-48 3,-18 5,-37 5,-57l0 -7z"/>
     <path id="_5_10" class="fil0" d="M4440 5582l0 211c0,30 5,51 14,63 9,12 28,18 58,18 8,0 16,0 25,-1 8,-1 16,-2 25,-3l0 109c-20,3 -40,5 -59,7 -18,2 -36,2 -55,2 -30,0 -57,-2 -79,-6 -23,-5 -41,-12 -55,-24 -15,-11 -25,-27 -32,-46 -7,-19 -11,-45 -11,-76l0 -254 -94 0 0 -109 94 0 0 -90 169 -66 0 156 123 0 0 109 -123 0z"/>
     <path id="_6_11" class="fil0" d="M4600 5382l0 -127 175 0 0 127 -175 0zm0 598l0 -507 175 0 0 507 -175 0z"/>
     <path id="_7_12" class="fil0" d="M5414 5726c0,42 -7,80 -20,113 -14,33 -34,61 -59,84 -26,23 -57,40 -93,52 -36,11 -77,17 -122,17 -46,0 -86,-6 -122,-17 -36,-12 -66,-29 -91,-52 -25,-23 -44,-51 -57,-84 -14,-33 -20,-71 -20,-113 0,-40 6,-76 19,-107 13,-31 31,-58 54,-82 54,-51 128,-77 222,-77 45,0 85,6 120,19 36,12 67,29 91,51 25,22 45,50 58,83 13,33 20,70 20,113zm-181 0c0,-22 -1,-43 -5,-64 -4,-20 -10,-38 -19,-54 -8,-15 -20,-28 -35,-38 -14,-9 -32,-15 -54,-15 -22,0 -40,6 -54,15 -14,10 -26,23 -34,38 -8,16 -14,34 -17,54 -4,21 -5,42 -5,64 0,19 1,39 5,61 3,21 9,39 18,56 8,17 19,31 34,40 14,9 32,14 54,14 22,0 39,-5 53,-15 15,-10 27,-23 35,-39 9,-17 15,-35 19,-55 4,-20 5,-41 5,-62z"/>
     <path id="_8_13" class="fil0" d="M5824 5980l0 -273c0,-16 0,-32 -1,-48 -2,-16 -5,-31 -11,-43 -5,-14 -14,-24 -25,-32 -12,-8 -28,-12 -49,-12 -21,0 -36,4 -49,13 -12,10 -22,22 -29,37 -6,14 -10,30 -13,46 -1,18 -3,34 -3,50l0 262 -175 0 0 -343c0,-6 0,-16 0,-30 0,-14 0,-29 -1,-46 0,-16 -1,-33 -1,-49 0,-15 0,-29 -1,-39l172 0c1,18 2,34 3,51 0,16 0,25 0,28 25,-31 51,-52 76,-66 26,-13 58,-20 96,-20 66,0 114,16 143,47 30,31 44,80 44,146l0 321 -176 0z"/>
     <rect class="fil1" transform="matrix(6.1347E-013 -6.92713 30.6873 2.43054E-013 50.3096 5980.15)" width="788.25" height="23.15"/>
    </g>
   </g>
   <rect class="fil1" x="7781" y="12" width="80.0005" height="6474.99"/>
  </g>
 </g>
</svg>
