<?xml version="1.0" encoding="UTF-8"?>
<!DOCTYPE svg PUBLIC "-//W3C//DTD SVG 1.1//EN" "http://www.w3.org/Graphics/SVG/1.1/DTD/svg11.dtd">
<!-- Creator: CorelDRAW X7 -->
<svg xmlns="http://www.w3.org/2000/svg" xml:space="preserve" width="86mm" height="99mm" version="1.1" style="shape-rendering:geometricPrecision; text-rendering:geometricPrecision; image-rendering:optimizeQuality; fill-rule:evenodd; clip-rule:evenodd"
viewBox="0 0 8600 9900"
 xmlns:xlink="http://www.w3.org/1999/xlink">
 <defs>
  <style type="text/css">
   <![CDATA[
    .fil1 {fill:none}
    .fil2 {fill:#0090C1}
    .fil0 {fill:#0090C1;fill-opacity:0.400000}
   ]]>
  </style>
 </defs>
 <g id="Layer_x0020_1">
  <metadata id="CorelCorpID_0Corel-Layer"/>
  <polygon class="fil0" points="1993,6282 4300,7614 6607,6282 5617,5710 4300,6470 2983,5710 "/>
  <polygon class="fil1" points="4300,4573 3973,4761 3973,5139 4300,5327 4627,5139 4627,4761 "/>
  <polygon class="fil2" points="4300,0 13,2475 13,7425 1003,6853 1003,3047 1003,3047 2364,2261 4300,1143 6345,2324 7597,3047 7597,6853 8587,7425 8587,2475 "/>
  <polygon class="fil0" points="13,7425 4300,9900 8587,7425 7597,6853 4300,8757 1003,6853 "/>
  <polygon class="fil2" points="6607,3618 6607,6282 5617,5710 5617,4190 4300,3430 2983,4190 2983,5710 1993,6282 1993,3618 4300,2286 "/>
  <polygon class="fil2" points="4300,4573 3973,4761 3973,5139 4300,5327 4627,5139 4627,4761 "/>
 </g>
</svg>
