<?xml version="1.0" encoding="UTF-8"?>
<!DOCTYPE svg PUBLIC "-//W3C//DTD SVG 1.1//EN" "http://www.w3.org/Graphics/SVG/1.1/DTD/svg11.dtd">
<!-- Creator: CorelDRAW X7 -->
<svg xmlns="http://www.w3.org/2000/svg" xml:space="preserve" width="80mm" height="74mm" version="1.1" style="shape-rendering:geometricPrecision; text-rendering:geometricPrecision; image-rendering:optimizeQuality; fill-rule:evenodd; clip-rule:evenodd"
viewBox="0 0 8000 7400"
 xmlns:xlink="http://www.w3.org/1999/xlink">
 <defs>
  <style type="text/css">
   <![CDATA[
    .fil0 {fill:#2B2A29}
    .fil2 {fill:#5F1863}
    .fil1 {fill:#2B2A29;fill-rule:nonzero}
   ]]>
  </style>
 </defs>
 <g id="Layer_x0020_1">
  <metadata id="CorelCorpID_0Corel-Layer"/>
  <g id="_741513360">
   <g>
    <rect class="fil0" x="1678" y="1051" width="3730" height="125"/>
    <rect class="fil0" x="1678" y="1312" width="3730" height="125"/>
    <rect class="fil0" x="1678" y="2651" width="3730" height="125"/>
    <g>
     <rect class="fil0" transform="matrix(1.25312E-013 1.19625 -5.40626 3.62002E-014 1941.51 1572.65)" width="788.25" height="23.15"/>
     <rect class="fil0" transform="matrix(1.25312E-013 1.19625 -5.40626 3.62002E-014 2311.23 1572.65)" width="788.25" height="23.15"/>
     <rect class="fil0" transform="matrix(1.25312E-013 1.19625 -5.40626 3.62002E-014 2680.95 1572.65)" width="788.25" height="23.15"/>
     <rect class="fil0" transform="matrix(1.25312E-013 1.19625 -5.40626 3.62002E-014 3050.67 1572.65)" width="788.25" height="23.15"/>
     <rect class="fil0" transform="matrix(1.25312E-013 1.19625 -5.40626 3.62002E-014 3420.38 1572.65)" width="788.25" height="23.15"/>
     <rect class="fil0" transform="matrix(1.25312E-013 1.19625 -5.40626 3.62002E-014 3790.1 1572.65)" width="788.25" height="23.15"/>
     <rect class="fil0" transform="matrix(1.25312E-013 1.19625 -5.40626 3.62002E-014 4159.82 1572.65)" width="788.25" height="23.15"/>
     <rect class="fil0" transform="matrix(1.25312E-013 1.19625 -5.40626 3.62002E-014 4529.54 1572.65)" width="788.25" height="23.15"/>
     <rect class="fil0" transform="matrix(1.25312E-013 1.19625 -5.40626 3.62002E-014 4899.26 1572.65)" width="788.25" height="23.15"/>
     <rect class="fil0" transform="matrix(1.25312E-013 1.19625 -5.40626 3.62002E-014 5269.31 1572.65)" width="788.25" height="23.15"/>
    </g>
    <rect class="fil0" x="2120" y="801" width="2845" height="125"/>
    <path class="fil0" d="M3543 37c562,0 1068,239 1422,622l-2844 0c354,-383 860,-622 1422,-622z"/>
   </g>
   <polygon class="fil1" points="2510,4628 2510,3828 2282,4628 2090,4628 1862,3828 1862,4628 1677,4628 1677,3664 2002,3664 2200,4385 2384,3664 2709,3664 2709,4628 "/>
   <polygon id="1" class="fil1" points="2886,4628 2886,3664 3105,3664 3105,4628 "/>
   <polygon id="2" class="fil1" points="3677,3832 3677,4628 3458,4628 3458,3832 3198,3832 3198,3664 3937,3664 3937,3832 "/>
   <path class="fil1" d="M4742 4358c0,51 -11,94 -32,130 -22,36 -49,66 -83,88 -34,23 -72,39 -116,50 -43,10 -87,15 -130,15 -46,0 -88,-5 -128,-15 -39,-10 -74,-25 -105,-47 -31,-22 -56,-50 -75,-84 -19,-34 -30,-76 -34,-126l130 0c1,31 8,57 20,79 12,22 28,40 48,54 19,14 42,25 67,32 25,6 52,10 81,10 26,0 53,-4 80,-10 27,-6 52,-16 74,-30 22,-14 40,-31 54,-52 14,-22 21,-48 21,-79 0,-25 -6,-47 -16,-65 -11,-18 -25,-34 -42,-47 -18,-13 -38,-25 -61,-34 -23,-9 -47,-18 -72,-26l-82 -25c-35,-11 -69,-23 -102,-36 -33,-13 -62,-29 -88,-48 -26,-20 -46,-44 -62,-72 -15,-29 -23,-64 -23,-106 0,-48 10,-88 29,-122 19,-33 45,-60 77,-82 31,-21 67,-36 108,-46 40,-10 81,-15 123,-15 40,0 79,4 117,12 38,8 71,22 100,41 30,19 54,44 72,75 18,31 28,70 28,116l-126 0c-3,-27 -10,-51 -20,-70 -11,-19 -25,-35 -42,-47 -18,-12 -37,-20 -60,-25 -22,-5 -45,-7 -70,-7 -25,0 -50,3 -75,8 -26,6 -48,16 -68,28 -20,13 -37,30 -49,50 -13,21 -19,45 -19,74 0,21 5,40 16,56 10,17 23,31 39,43 16,12 34,22 53,31 20,8 39,15 57,22l109 36c35,11 69,23 102,36 33,13 62,29 88,49 26,20 47,44 63,73 16,29 24,65 24,108z"/>
   <polygon id="1" class="fil1" points="4900,4628 4900,3664 5017,3664 5017,4628 "/>
   <path id="2" class="fil1" d="M5826 4288c0,49 -8,96 -22,139 -15,43 -37,81 -65,113 -28,32 -63,57 -104,75 -41,18 -87,27 -140,27 -53,0 -101,-9 -142,-26 -41,-18 -76,-43 -104,-74 -28,-32 -49,-70 -64,-113 -14,-44 -22,-91 -22,-141 0,-51 8,-98 23,-140 15,-43 37,-80 65,-110 29,-31 63,-55 105,-72 41,-18 88,-26 140,-26 54,0 101,8 142,25 41,17 75,41 103,71 28,31 49,68 63,110 15,43 22,90 22,142zm-123 -1c0,-33 -4,-65 -11,-97 -8,-32 -20,-60 -36,-85 -17,-25 -38,-45 -64,-60 -27,-15 -59,-23 -96,-23 -37,0 -69,8 -96,23 -26,15 -48,35 -64,60 -17,25 -29,53 -36,85 -8,32 -12,64 -12,97 0,33 4,66 12,98 7,33 19,62 36,88 16,27 37,48 63,65 27,16 59,24 97,24 37,0 69,-8 95,-24 26,-17 47,-39 64,-65 17,-27 29,-57 37,-89 7,-33 11,-65 11,-97z"/>
   <path id="3" class="fil1" d="M6398 4628c-2,-15 -5,-30 -7,-48 -2,-17 -4,-33 -5,-47 -28,41 -61,69 -98,85 -38,16 -81,24 -130,24 -31,0 -61,-4 -89,-12 -28,-8 -53,-20 -75,-36 -22,-17 -39,-38 -52,-62 -13,-25 -20,-55 -20,-90 0,-50 13,-91 38,-120 25,-30 56,-53 94,-68 37,-16 79,-26 124,-30 46,-5 89,-7 130,-7 12,0 24,0 35,1 11,0 22,1 31,2l0 -40c0,-52 -11,-92 -32,-120 -22,-29 -61,-43 -116,-43 -41,0 -74,9 -98,26 -23,17 -37,48 -42,93l-114 0c2,-37 10,-67 24,-92 15,-25 34,-45 57,-60 23,-15 49,-26 79,-33 29,-7 60,-10 92,-10 86,0 150,18 192,55 42,36 64,98 64,186l0 248c0,45 2,85 7,121 5,36 9,61 14,77l-103 0zm-24 -338c-14,-1 -25,-2 -33,-2 -8,0 -17,0 -27,0 -25,0 -54,1 -86,4 -32,2 -62,9 -90,19 -28,10 -52,25 -70,45 -19,19 -28,46 -28,81 0,20 4,39 12,55 8,16 19,29 32,40 14,10 30,18 48,24 17,5 36,8 56,8 42,0 76,-8 100,-24 25,-15 43,-36 56,-62 13,-26 21,-55 25,-88 4,-33 5,-66 5,-100z"/>
   <path id="4" class="fil1" d="M7139 4628l0 -374c0,-29 -2,-57 -4,-83 -3,-26 -9,-49 -20,-69 -11,-20 -27,-36 -47,-48 -21,-12 -50,-18 -85,-18 -37,0 -67,7 -91,22 -24,15 -43,35 -56,59 -14,24 -24,51 -30,82 -6,31 -8,62 -8,93l0 336 -118 0 0 -500c0,-15 0,-30 0,-46 -1,-17 -1,-33 -2,-48 0,-16 -1,-31 -1,-44 0,-14 -1,-26 -1,-36l116 0 4 108c28,-39 59,-68 94,-87 35,-19 77,-29 126,-29 88,0 150,23 186,70 36,46 54,110 54,193l0 419 -117 0z"/>
   <polygon class="fil1" points="1697,5970 1697,5006 2383,5006 2383,5172 1941,5172 1941,5401 2360,5401 2360,5562 1941,5562 1941,5805 2397,5805 2397,5970 "/>
   <polygon id="1" class="fil1" points="2928,5970 2791,5728 2654,5970 2403,5970 2645,5621 2422,5297 2691,5297 2805,5514 2923,5297 3174,5297 2956,5621 3203,5970 "/>
   <path id="2" class="fil1" d="M3412 5672c0,26 2,51 8,74 5,23 14,44 25,61 12,17 27,31 45,41 18,9 40,14 67,14 76,0 120,-38 129,-114l222 0c-5,32 -14,60 -28,85 -14,25 -31,47 -52,67 -34,31 -74,53 -120,65 -47,13 -98,20 -154,20 -67,0 -125,-9 -172,-26 -48,-18 -87,-44 -118,-79 -26,-29 -46,-63 -59,-104 -13,-40 -20,-84 -20,-132 0,-113 31,-202 94,-267 63,-65 156,-97 279,-97 77,0 143,14 200,44 56,29 98,76 126,140 13,31 21,63 25,95 3,32 5,70 5,113l-502 0zm278 -115c0,-51 -11,-90 -32,-117 -22,-28 -55,-42 -98,-42 -45,0 -80,15 -106,44 -25,29 -38,67 -38,115l274 0z"/>
   <path id="3" class="fil1" d="M4683 5716c-3,52 -13,96 -32,131 -18,35 -42,63 -73,83 -31,21 -67,35 -108,43 -41,9 -86,13 -135,13 -62,0 -116,-7 -160,-22 -44,-15 -82,-37 -113,-66 -31,-30 -56,-67 -73,-111 -17,-44 -26,-94 -26,-149 0,-56 9,-106 27,-152 17,-45 43,-83 77,-114 32,-31 71,-54 117,-70 45,-16 99,-24 160,-24 97,0 175,21 235,61 59,40 93,107 101,201l-228 0c-2,-43 -11,-76 -28,-100 -18,-24 -46,-36 -84,-36 -28,0 -52,6 -70,20 -18,13 -32,30 -42,52 -11,21 -18,45 -21,72 -4,27 -5,55 -5,82 0,28 1,55 5,82 3,27 10,52 20,74 10,21 23,39 41,52 17,14 40,20 68,20 43,0 72,-12 89,-38 16,-25 25,-60 27,-104l231 0z"/>
   <path id="4" class="fil1" d="M5234 5970c0,-3 0,-9 -1,-19 -1,-10 -2,-22 -2,-34 -1,-12 -1,-22 -2,-32 0,-10 0,-16 0,-17 -31,39 -64,68 -97,86 -33,18 -76,27 -127,27 -92,0 -158,-26 -200,-79 -17,-21 -30,-46 -37,-75 -8,-29 -12,-63 -12,-103l0 -427 233 0 0 365c0,24 1,47 2,69 2,22 7,41 14,57 7,16 18,28 33,38 15,10 36,15 63,15 27,0 49,-6 66,-17 17,-12 31,-28 40,-47 8,-17 14,-35 16,-55 3,-20 4,-43 4,-69l0 -356 234 0 0 433c0,38 0,77 0,118 1,42 2,82 4,122l-231 0z"/>
   <path id="5" class="fil1" d="M5865 5442l0 280c0,39 6,67 18,83 12,16 38,24 78,24 10,0 20,-1 32,-1 11,-1 22,-3 34,-4l0 145c-27,3 -53,6 -78,8 -25,3 -49,4 -73,4 -41,0 -76,-3 -106,-9 -30,-6 -54,-16 -73,-31 -19,-16 -33,-36 -42,-62 -9,-25 -14,-59 -14,-100l0 -337 -126 0 0 -145 126 0 0 -120 224 -88 0 208 163 0 0 145 -163 0z"/>
   <path id="6" class="fil1" d="M6094 5176l0 -170 233 0 0 170 -233 0zm0 794l0 -673 233 0 0 673 -233 0z"/>
   <polygon id="7" class="fil1" points="6902,5970 6644,5970 6368,5297 6619,5297 6780,5782 6948,5297 7177,5297 "/>
   <path id="8" class="fil1" d="M7382 5672c0,26 2,51 8,74 5,23 13,44 25,61 12,17 26,31 45,41 18,9 40,14 67,14 76,0 119,-38 129,-114l222 0c-5,32 -14,60 -28,85 -14,25 -31,47 -52,67 -34,31 -74,53 -120,65 -47,13 -98,20 -154,20 -67,0 -125,-9 -172,-26 -48,-18 -87,-44 -118,-79 -26,-29 -46,-63 -59,-104 -13,-40 -20,-84 -20,-132 0,-113 31,-202 94,-267 63,-65 156,-97 279,-97 77,0 143,14 200,44 56,29 98,76 126,140 13,31 21,63 25,95 3,32 5,70 5,113l-502 0zm278 -115c0,-51 -11,-90 -32,-117 -22,-28 -55,-42 -98,-42 -45,0 -80,15 -106,44 -25,29 -38,67 -38,115l274 0z"/>
   <polygon class="fil1" points="1697,7347 1697,6384 2383,6384 2383,6549 1941,6549 1941,6778 2360,6778 2360,6939 1941,6939 1941,7182 2397,7182 2397,7347 "/>
   <path id="1" class="fil1" d="M2955 7347c0,-2 0,-6 -1,-14 0,-8 -1,-18 -2,-28 -1,-10 -1,-19 -2,-28 0,-9 0,-15 0,-19 -31,36 -61,63 -93,79 -31,17 -73,25 -123,25 -52,0 -97,-9 -135,-27 -38,-18 -70,-42 -94,-73 -25,-31 -44,-68 -56,-110 -12,-42 -18,-88 -18,-138 0,-46 6,-91 18,-134 11,-43 29,-81 53,-114 24,-33 55,-59 92,-79 37,-19 82,-29 134,-29 48,0 90,8 125,24 35,16 68,43 98,81l0 -379 233 0 0 777c0,33 1,65 1,96 0,30 2,60 3,90l-233 0zm1 -334c0,-30 -2,-58 -7,-84 -5,-27 -13,-50 -25,-71 -12,-20 -28,-37 -47,-49 -19,-12 -43,-18 -71,-18 -28,0 -50,7 -68,19 -18,13 -32,29 -42,49 -10,20 -18,43 -22,70 -4,26 -6,53 -6,81 0,28 2,56 6,82 4,26 12,50 23,70 11,20 26,37 45,49 18,13 42,19 72,19 26,0 49,-6 67,-19 18,-13 33,-30 44,-50 11,-21 19,-44 24,-70 5,-25 7,-52 7,-78z"/>
   <path id="2" class="fil1" d="M3774 7347c0,-2 0,-9 -1,-19 -1,-10 -2,-21 -2,-33 -1,-12 -1,-23 -2,-33 0,-10 0,-16 0,-17 -31,40 -64,68 -97,86 -33,18 -76,27 -127,27 -92,0 -158,-26 -200,-79 -17,-21 -29,-46 -37,-75 -8,-29 -12,-63 -12,-103l0 -427 233 0 0 365c0,24 1,47 3,69 1,22 6,41 13,57 7,16 18,29 33,38 15,10 36,15 63,15 27,0 50,-6 66,-17 17,-12 31,-27 40,-47 8,-17 14,-35 16,-55 3,-20 4,-43 4,-69l0 -356 234 0 0 433c0,38 0,77 0,118 1,42 2,82 4,122l-231 0z"/>
   <path id="3" class="fil1" d="M4793 7093c-3,52 -13,96 -31,131 -18,35 -43,63 -74,83 -30,21 -66,35 -108,44 -41,8 -86,12 -135,12 -62,0 -115,-7 -160,-22 -44,-14 -82,-36 -113,-66 -31,-30 -55,-67 -73,-111 -17,-44 -26,-94 -26,-149 0,-56 9,-106 27,-152 18,-45 44,-83 77,-114 32,-30 71,-54 117,-70 46,-16 99,-24 161,-24 96,0 175,21 234,61 60,41 93,107 101,201l-228 0c-1,-43 -11,-76 -28,-100 -17,-24 -45,-36 -83,-36 -29,0 -52,6 -70,20 -19,13 -33,30 -43,52 -10,21 -17,45 -21,72 -3,28 -5,55 -5,82 0,28 2,55 5,82 4,27 10,52 20,74 10,21 24,39 41,52 17,14 40,20 69,20 42,0 72,-12 88,-38 17,-25 26,-60 27,-104l231 0z"/>
   <path id="4" class="fil1" d="M5290 7347c-5,-16 -8,-32 -10,-47 -3,-16 -5,-33 -6,-53 -27,43 -58,72 -94,89 -36,16 -81,25 -134,25 -35,0 -67,-5 -97,-13 -30,-9 -55,-21 -77,-38 -21,-17 -38,-38 -50,-65 -12,-26 -18,-56 -18,-91 0,-49 12,-88 36,-118 24,-30 56,-53 94,-69 39,-16 83,-26 131,-32 48,-5 97,-8 146,-8l63 0 0 -42c0,-15 -2,-30 -5,-44 -3,-13 -9,-26 -17,-36 -8,-11 -18,-20 -30,-26 -13,-7 -28,-10 -47,-10 -36,0 -61,9 -77,26 -15,18 -23,42 -23,72l-228 0c1,-42 12,-77 33,-105 21,-27 47,-49 78,-65 32,-15 67,-26 104,-32 38,-5 75,-8 110,-8 61,0 113,5 156,14 44,10 79,29 107,58 20,20 36,46 47,76 10,30 16,69 16,116l0 212c0,39 0,75 1,108 1,34 4,69 9,106l-218 0zm-16 -321c-8,-1 -19,-1 -32,-1 -14,0 -24,0 -30,0 -20,0 -41,1 -63,5 -22,4 -42,10 -60,19 -18,9 -33,21 -45,36 -12,15 -18,34 -18,57 0,28 10,51 30,69 20,17 44,26 72,26 30,0 54,-6 73,-18 19,-11 34,-26 45,-45 10,-19 18,-40 22,-64 4,-24 6,-49 6,-75l0 -9z"/>
   <path id="5" class="fil1" d="M5879 6819l0 280c0,39 6,67 18,83 12,16 38,24 78,24 10,0 21,0 32,-1 11,-1 22,-3 34,-4l0 145c-27,3 -53,6 -78,9 -25,2 -49,3 -73,3 -41,0 -76,-3 -106,-9 -30,-6 -54,-16 -73,-31 -19,-15 -33,-36 -42,-62 -9,-25 -14,-59 -14,-100l0 -337 -126 0 0 -145 126 0 0 -120 224 -88 0 208 163 0 0 145 -163 0z"/>
   <path id="6" class="fil1" d="M6091 6553l0 -169 233 0 0 169 -233 0zm0 794l0 -673 233 0 0 673 -233 0z"/>
   <path id="7" class="fil1" d="M7172 7009c0,57 -9,107 -27,151 -18,44 -44,81 -78,111 -34,31 -75,53 -123,69 -48,15 -102,23 -162,23 -61,0 -115,-8 -162,-23 -48,-16 -88,-38 -121,-69 -33,-30 -58,-67 -76,-111 -18,-44 -26,-94 -26,-151 0,-53 8,-100 25,-142 17,-41 41,-77 72,-108 71,-68 169,-102 294,-102 60,0 113,8 160,24 47,16 88,39 121,68 33,30 59,67 77,110 17,44 26,94 26,150zm-240 0c0,-29 -2,-56 -7,-84 -5,-27 -13,-51 -25,-72 -11,-20 -27,-37 -46,-50 -19,-13 -43,-20 -72,-20 -30,0 -54,7 -72,20 -19,13 -34,30 -45,50 -11,21 -19,45 -23,72 -5,28 -7,55 -7,84 0,26 2,53 7,81 4,28 12,52 24,75 11,23 26,41 45,53 19,12 43,19 72,19 29,0 52,-7 71,-20 19,-14 35,-31 46,-52 12,-22 20,-46 25,-73 5,-27 7,-55 7,-83z"/>
   <path id="8" class="fil1" d="M7717 7347l0 -362c0,-22 -1,-43 -2,-64 -2,-22 -6,-41 -14,-58 -7,-18 -19,-32 -34,-42 -16,-11 -37,-16 -65,-16 -27,0 -48,6 -65,18 -16,13 -29,29 -38,48 -8,19 -14,40 -17,62 -2,23 -4,45 -4,66l0 348 -233 0 0 -456c0,-8 0,-21 0,-40 0,-18 0,-38 -1,-60 0,-22 -1,-44 -1,-65 -1,-21 -1,-39 -2,-52l228 0c2,23 3,45 4,67 1,21 1,34 1,37 33,-40 67,-69 101,-87 34,-17 76,-26 127,-26 88,0 151,20 190,62 39,41 58,106 58,194l0 426 -233 0z"/>
   <rect class="fil2" transform="matrix(8.14586E-013 -9.19807 40.7476 3.22735E-013 49.9872 7347.15)" width="788.25" height="23.15"/>
  </g>
 </g>
</svg>
