<?xml version="1.0" encoding="UTF-8"?>
<!DOCTYPE svg PUBLIC "-//W3C//DTD SVG 1.1//EN" "http://www.w3.org/Graphics/SVG/1.1/DTD/svg11.dtd">
<!-- Creator: CorelDRAW X7 -->
<svg xmlns="http://www.w3.org/2000/svg" xml:space="preserve" width="100mm" height="52mm" version="1.1" style="shape-rendering:geometricPrecision; text-rendering:geometricPrecision; image-rendering:optimizeQuality; fill-rule:evenodd; clip-rule:evenodd"
viewBox="0 0 10000 5200"
 xmlns:xlink="http://www.w3.org/1999/xlink">
 <defs>
  <style type="text/css">
   <![CDATA[
    .fil0 {fill:#2B2A29;fill-rule:nonzero}
    .fil1 {fill:#2695C0;fill-rule:nonzero}
   ]]>
  </style>
 </defs>
 <g id="Layer_x0020_1">
  <metadata id="CorelCorpID_0Corel-Layer"/>
  <path class="fil0" d="M51 40c359,1 718,1 1077,0 0,1707 0,3413 0,5120 -360,-1 -719,0 -1078,-1 0,-1471 0,-2942 0,-4413 1,-235 -1,-470 1,-706z"/>
  <path class="fil0" d="M1810 41c359,0 718,0 1077,0 0,1161 0,2321 0,3482 -359,0 -718,0 -1077,0 0,-1161 0,-2321 0,-3482z"/>
  <path class="fil0" d="M3566 41c359,-1 718,0 1078,0 -1,1706 0,3412 -1,5119 -359,-1 -718,0 -1077,0 0,-1707 0,-3413 0,-5119z"/>
  <path class="fil0" d="M5326 40c359,1 718,0 1077,1 0,339 0,677 0,1016 -359,0 -718,1 -1078,0 1,-339 0,-678 1,-1017z"/>
  <path class="fil0" d="M7112 41c946,0 1892,0 2838,0 0,339 0,677 0,1016 -946,0 -1892,0 -2838,0 0,-339 0,-677 0,-1016z"/>
  <path class="fil0" d="M7113 1674c359,1 718,1 1077,0 0,1162 0,2324 0,3486 -359,-1 -718,0 -1077,-1 0,-1161 0,-2323 0,-3485z"/>
  <path class="fil1" d="M5326 1675c359,0 718,0 1077,-1 0,1162 0,2324 0,3486 -359,-1 -718,0 -1077,0 0,-1162 0,-2324 0,-3485z"/>
 </g>
</svg>
