<?xml version="1.0" encoding="utf-8"?>
<!-- Generator: Adobe Illustrator 16.0.0, SVG Export Plug-In . SVG Version: 6.00 Build 0)  -->
<!DOCTYPE svg PUBLIC "-//W3C//DTD SVG 1.1//EN" "http://www.w3.org/Graphics/SVG/1.1/DTD/svg11.dtd">
<svg version="1.1" id="Layer_1" xmlns="http://www.w3.org/2000/svg" xmlns:xlink="http://www.w3.org/1999/xlink" x="0px" y="0px"
	 width="1386.141px" height="283.465px" viewBox="0 0 1386.141 283.465" enable-background="new 0 0 1386.141 283.465"
	 xml:space="preserve">
<g id="Layer_x0020_1">
	<g id="_766259824">
		<path fill="#FFFFFF" d="M22.762,174.727c0-61.823,41.216-87.874,84.104-87.874s84.132,26.051,84.132,87.874
			c0,61.824-41.244,87.846-84.132,87.846S22.762,236.552,22.762,174.727z M0.907,174.727c0,72.113,50.513,107.32,105.959,107.32
			s105.959-35.207,105.959-107.32c0-72.142-50.513-107.348-105.959-107.348S0.907,102.586,0.907,174.727z"/>
		<path fill="#FFFFFF" d="M243.581,274.734H262.8l-0.255-95.642h46.658c41.584,0,64.432-18.68,64.432-54.028
			c0-39.231-27.298-53.518-55.843-53.518h-74.494L243.581,274.734z M262.545,89.206h52.64c22.082,0,37.672,8.079,37.672,35.858
			c0,21.827-9.383,36.369-41.584,36.369h-48.728V89.206z"/>
		<polygon fill="#FFFFFF" points="400.025,276.888 531.496,276.888 531.213,257.442 420.917,257.442 420.917,180.737 
			523.786,180.737 523.786,161.263 420.917,161.263 420.917,91.984 528.916,91.984 528.916,72.539 399.742,72.539 		"/>
		<polygon fill="#FFFFFF" points="567.241,276.888 586.035,276.888 585.779,102.302 586.29,102.302 714.018,276.888 
			735.846,276.888 735.59,72.539 716.797,72.539 716.797,247.125 716.288,247.125 589.578,72.539 566.986,72.539 		"/>
		<g>
			<g>
				<path fill="#FFFFFF" d="M1206.993,236.467h28.148v45.496h-48.672v-45.496h-34.102v-8.873l71.49-88.327l-71.49-88.101
					l-4.365-5.329h4.365V1.418h82.773v44.419h-25.371l25.371,31.181l19.643,24.151l19.674-24.265l25.113-31.067h-25.113V1.418
					h110.777v44.419h-23.783l-75.826,93.43l78.859,97.2h20.75c0,14.797,0,30.699,0,45.496h-110.777v-45.496h28.26l-28.26-34.838
					l-19.674-24.265l-19.643,24.265L1206.993,236.467z"/>
				<polygon fill="#FFFFFF" points="1186.469,236.467 1186.469,281.963 1152.368,281.963 1123.739,281.963 1123.739,248.003 
					1123.739,236.467 1132.952,236.467 1145.112,236.467 1152.368,227.594 1152.368,236.467 				"/>
				<polygon fill="#FFFFFF" points="1148.002,45.837 1123.739,45.837 1123.739,1.418 1152.368,1.418 1152.368,45.837 				"/>
				<path fill="#FFFFFF" d="M1107.61,45.837h-29.623V1.418h29.623h16.129v44.419h24.264l4.365,5.329v122.088v0.34v54l-7.256,8.873
					h-12.16h-9.213v11.536v33.96h-16.129v-19.645c-17.234,12.359-38.354,19.645-61.541,19.645c-31.662,0-60.18-13.578-80.078-35.32
					c8.135-9.099,14.684-19.53,19.305-31.039h-39.318c-1.699-4.139-3.174-8.249-4.365-12.501c-1.219-4.025-2.068-8.022-2.805-12.274
					h7.539h38.324c1.219,4.252,2.807,8.249,4.877,12.133c10.658,20.041,31.775,33.732,56.041,33.732
					c34.951,0,61.766-28.262,62.021-63.1v-0.34c0-35.093-26.957-63.468-62.021-63.468c-24.266,0-45.383,13.691-56.041,33.846
					c-4.508-16.611-12.643-31.55-23.557-43.795c19.898-21.714,48.416-35.32,80.078-35.32c23.188,0,44.307,7.285,61.541,19.673
					V45.837z"/>
				<path fill="#FFFFFF" d="M993.43,173.254c0,6.066-0.482,11.877-1.332,17.574h-7.428c-1.701-5.584-2.551-11.508-2.551-17.574
					c0-6.435,0.992-12.756,2.807-18.567c1.219-3.883,2.777-7.653,4.621-11.055c0.963,3.515,1.813,7.285,2.408,11.055
					C992.948,160.611,993.43,166.932,993.43,173.254z"/>
				<path fill="#FFFFFF" d="M945.977,215.603h39.318c-4.621,11.509-11.17,21.94-19.305,31.039
					C957.627,237.544,950.825,227.112,945.977,215.603z"/>
				<path fill="#FFFFFF" d="M984.926,154.686c-1.814,5.812-2.807,12.133-2.807,18.567c0,6.066,0.85,11.99,2.551,17.574h-38.324
					h-7.539c-0.852-5.697-1.334-11.508-1.334-17.574c0-6.321,0.482-12.643,1.588-18.567h7.031c-1.221-4.024-2.666-7.767-4.48-11.281
					c4.594-16.526,13.098-31.323,24.379-43.568c10.914,12.245,19.049,27.184,23.557,43.795
					C987.704,147.033,986.145,150.803,984.926,154.686z"/>
				<path fill="#FFFFFF" d="M965.991,246.642c-19.162,21.742-47.084,35.32-78.746,35.32c-54,0-98.9-39.431-107.264-91.135
					c-0.992-5.697-1.475-11.508-1.475-17.574c0-6.321,0.625-12.643,1.588-18.567c8.873-51.222,53.404-90.17,107.15-90.17
					c31.662,0,59.584,13.606,78.746,35.32c-11.281,12.245-19.785,27.042-24.379,43.568c-10.316-20.041-30.699-33.619-54.85-33.619
					c-28.631,0-52.781,18.936-60.689,44.9h112.988c-1.105,5.925-1.588,12.246-1.588,18.567c0,6.066,0.482,11.877,1.334,17.574
					H825.733c7.625,26.476,32.031,45.865,61.029,45.865c18.793,0,35.178-8.107,46.459-21.09h12.756
					C950.825,227.112,957.627,237.544,965.991,246.642z"/>
				<path fill="#FFFFFF" d="M946.092,154.686h-7.031c0.596-3.883,1.445-7.653,2.551-11.281
					C943.426,146.92,944.872,150.662,946.092,154.686z"/>
			</g>
		</g>
	</g>
</g>
</svg>
